<svg width="204" height="124" viewBox="0 0 204 124" fill="none" xmlns="http://www.w3.org/2000/svg">
<path opacity="0.2" d="M7.2529 6.51959H189.174C191.097 6.51959 192.942 7.28373 194.302 8.64392C195.662 10.0041 196.427 11.8489 196.427 13.7725V116.676C196.427 118.6 195.662 120.445 194.302 121.805C192.942 123.165 191.097 123.929 189.174 123.929H7.2529C5.32931 123.929 3.48451 123.165 2.12433 121.805C0.764143 120.445 0 118.6 0 116.676V13.7725C0 11.8489 0.764143 10.0041 2.12433 8.64392C3.48451 7.28373 5.32931 6.51959 7.2529 6.51959Z" fill="#11240E"/>
<path d="M13.6174 0.831299H195.538C197.462 0.831299 199.307 1.59544 200.667 2.95562C202.027 4.31581 202.791 6.16061 202.791 8.0842V110.988C202.791 112.912 202.027 114.757 200.667 116.117C199.307 117.477 197.462 118.241 195.538 118.241H13.6174C12.6649 118.241 11.7218 118.053 10.8418 117.689C9.96187 117.325 9.16232 116.79 8.48883 116.117C7.81533 115.443 7.28109 114.644 6.9166 113.764C6.5521 112.884 6.3645 111.941 6.3645 110.988V8.0842C6.3645 6.16061 7.12864 4.31581 8.48883 2.95562C9.84901 1.59544 11.6938 0.831299 13.6174 0.831299Z" fill="#588D3B"/>
<path d="M87.0161 69.4094C83.6434 60.9776 93.6212 60.4154 91.6538 51.9837C89.6864 43.552 88.9838 47.0653 87.719 36.5256C86.4542 25.9859 86.4542 24.8617 80.1304 24.0186C76.5684 23.6408 73.1962 22.2235 70.4339 19.9432C70.4339 19.9432 70.5194 16.992 61.6233 20.7863C52.7272 24.5806 52.0245 25.7048 43.1712 24.7211C34.3179 23.7374 34.88 26.1264 32.0694 32.1691C29.2588 38.2118 20.1508 38.4929 26.4615 41.444C32.7722 44.3951 38.5714 34.6987 45.1577 43.5521C51.744 52.4055 47.9316 54.5132 53.8426 59.8533C59.7536 65.1934 59.2771 64.0692 61.6233 68.8472C63.9695 73.6252 73.2444 70.9552 80.4114 75.3116C87.5784 79.668 90.3888 77.8411 87.0161 69.4094Z" fill="#58A13B"/>
<path d="M189.04 46.9248C186.51 37.2283 186.37 26.5482 178.079 29.3588C176.043 30.0488 173.582 32.5909 155.032 31.3262C136.482 30.0615 145.602 28.7961 127.832 32.8717C110.062 36.9473 100.507 33.7151 99.2422 39.8984C97.9777 46.0817 102.053 40.8821 108.658 47.487C115.263 54.0919 109.22 59.2914 113.576 62.8046C117.933 66.3178 135.55 61.2588 138.546 64.9125C141.542 68.5662 135.921 66.5989 139.855 73.9064C143.79 81.2139 135.921 86.1323 136.764 88.9429C137.607 91.7535 142.155 86.8382 138.546 95.0575C134.937 103.277 143.509 102.215 146.46 96.7032C149.412 91.1914 141.713 90.482 156.102 86.1289C170.491 81.7758 174.566 80.0144 176.674 70.8147C178.782 61.615 191.57 56.6212 189.04 46.9248Z" fill="#58A13B"/>
<path d="M122.289 77.5954C122.289 77.5954 116.527 76.7169 117.37 79.3869C118.213 82.0569 121.165 81.4948 121.305 84.0244C121.446 86.554 122.57 89.9265 124.256 87.678C125.943 85.4295 127.91 84.1009 126.224 81.1115C125.428 79.4659 124.013 78.2019 122.289 77.5954Z" fill="#58A13B"/>
<path d="M98.3992 97.2516C92.6375 97.7962 92.9184 92.4344 88.8431 92.8668C84.7678 93.2992 84.4869 91.0541 83.0816 95.0575C82.6391 96.0931 82.5506 97.2458 82.8301 98.3368C83.1096 99.4277 83.7413 100.396 84.6272 101.091C84.6272 101.091 86.173 101.004 90.1079 103.475C94.0428 105.947 95.5886 102.976 98.3992 102.283C101.21 101.59 104.161 96.7071 98.3992 97.2516Z" fill="#58A13B"/>
<path d="M106.409 91.1913C105.004 87.9592 102.475 86.0626 101.209 88.4162C99.9441 90.7698 103.518 92.8669 103.518 92.8669C104.793 94.2633 105.993 95.7269 107.111 97.2516C108.236 98.9204 112.873 99.4317 111.187 96.1547C109.501 92.8777 107.815 94.4235 106.409 91.1913Z" fill="#58A13B"/>
<path d="M114.279 29.4993C113.488 30.2809 112.541 30.8855 111.499 31.2731C110.457 31.6607 109.345 31.8224 108.236 31.7476C104.371 31.5368 101.491 34.4876 100.718 32.8717C99.9448 31.2558 102.395 31.4666 104.578 29.71C106.76 27.9534 105.004 25.5645 109.501 25.4239C113.998 25.2833 117.089 24.3699 116.738 26.4778C116.586 27.1357 116.285 27.7501 115.859 28.2738C115.433 28.7976 114.892 29.2168 114.279 29.4993Z" fill="#58A13B"/>
<path d="M122.71 17.6949C121.241 18.8302 119.438 19.4478 117.581 19.4515C114.771 19.3109 110.836 18.257 113.717 16.7115C116.598 15.166 118.917 12.7766 120.532 12.2145C122.148 11.6524 129.105 13.3388 130.861 11.7227C132.618 10.1066 134.515 6.52266 136.693 5.53936C138.871 4.55606 137.747 3.7125 145.265 4.0639C152.784 4.4153 157 1.9339 158.264 3.9826C159.529 6.0313 154.048 4.83683 150.676 10.2471C147.303 15.6574 148.357 18.3892 141.542 18.8502C134.726 19.3112 131.915 16.852 129.245 16.852C127.038 16.8182 124.837 17.1021 122.71 17.6949Z" fill="#58A13B"/>
<path d="M22.3256 53.2403C22.3256 53.2403 25.9089 54.2942 27.4547 51.9755C29.0005 49.6568 33.849 50.4999 34.13 49.2355C34.411 47.9711 33.4975 47.1977 29.9843 47.7598C26.4711 48.3219 22.6065 46.1437 20.2877 48.0409C17.9689 49.9381 19.8494 53.0373 22.3256 53.2403Z" fill="#58A13B"/>
<g style="mix-blend-mode:overlay" opacity="0.42">
<path d="M202.104 80.8296C202.407 80.2507 202.693 79.7036 203.018 79.1901C203.244 78.902 203.406 78.57 203.495 78.2154C203.584 77.8608 203.598 77.4913 203.536 77.1309C203.243 76.3563 202.246 76.3276 201.873 76.3168L201.814 76.3152C201.525 76.3091 201.237 76.303 200.949 76.2968C200.999 76.1927 201.042 76.0858 201.078 75.9767C201.212 75.6382 201.235 75.266 201.144 74.9136C201.052 74.5613 200.852 74.247 200.57 74.0162C201.286 72.3651 200.999 71.1032 199.762 70.402C199.911 70.0498 199.946 69.6594 199.861 69.2866C199.775 68.9137 199.575 68.5771 199.288 68.3245L199.234 68.2703C198.119 67.0539 196.728 66.1224 195.179 65.5539C195.1 65.5284 195.025 65.4933 194.956 65.4493C194.967 65.3276 194.996 65.2083 195.044 65.0958C197.317 58.5803 195.064 54.9999 189.062 55.2449C188.701 55.2596 188.321 55.2886 187.935 55.3305C184.443 55.7846 181.046 56.7935 177.872 58.3191C177.608 58.4565 177.328 58.563 177.039 58.6364C177.038 58.6364 176.96 58.5872 176.908 58.3054C176.785 57.7874 176.495 57.3243 176.083 56.988L175.92 56.8259C174.61 55.4685 172.475 54.8235 169.773 54.9444C165.54 55.329 161.47 56.7655 157.933 59.1232C153.175 62.2446 148.968 66.1339 145.484 70.6326C145.454 70.6696 145.425 70.7068 145.396 70.7438C142.999 71.4589 140.831 72.7938 139.114 74.6138C138.302 75.416 137.529 76.2102 136.778 76.9993C136.244 77.0138 135.729 77.2023 135.312 77.5364C134.587 78.1543 134.026 78.9422 133.68 79.8295C133.521 80.123 133.417 80.4437 133.376 80.7752C129.077 85.6354 125.678 91.2235 123.34 97.2769C121.67 101.847 122.012 105.037 124.405 106.78C124.673 106.975 124.928 107.19 125.198 107.419C125.579 107.754 125.981 108.064 126.402 108.347C130.041 110.685 134.709 112.494 141.248 114.037C142.37 114.301 143.59 114.58 144.855 114.817C148.375 115.544 151.995 115.658 155.554 115.153C160.118 114.569 164.535 113.15 168.585 110.966C170.411 111.235 172.275 111.002 173.978 110.291C177.584 108.859 178.483 106.656 178.693 105.475L178.704 105.42C178.795 105.38 178.923 105.327 179.106 105.26C181.216 104.474 183.799 103.16 184.805 100.048C184.812 100.026 184.819 100.003 184.825 99.9805C184.966 99.6112 184.997 99.2089 184.913 98.8226C184.83 98.4362 184.636 98.0825 184.355 97.8043C185.035 96.5231 185.429 95.1095 185.509 93.6612C185.588 92.2129 185.352 90.7645 184.817 89.4164C184.936 89.3706 185.052 89.3197 185.17 89.2713L188.261 89.4799C189.493 89.7238 190.772 89.5096 191.857 88.8775C192.504 88.4637 193.041 87.9 193.423 87.2344C194.207 87.2425 194.975 87.0216 195.634 86.5988C196.325 86.1604 196.896 85.5585 197.298 84.8465C197.358 84.8536 197.415 84.8665 197.476 84.8698C198.194 84.8855 198.902 84.6979 199.518 84.3285L199.543 84.3146C199.568 84.3004 199.595 84.2861 199.618 84.272C199.675 84.2387 199.727 84.2011 199.781 84.165C199.811 84.145 199.842 84.1261 199.872 84.105C199.97 84.0352 200.064 83.9604 200.154 83.8812C200.168 83.8685 200.181 83.8542 200.195 83.8411C200.27 83.7725 200.342 83.7018 200.408 83.6288C200.434 83.6007 200.457 83.5716 200.482 83.5427C200.536 83.4792 200.587 83.415 200.634 83.3493C200.646 83.3324 200.661 83.3171 200.673 83.2999C200.698 83.2623 200.72 83.2257 200.745 83.1882L200.747 83.1856C201.244 82.4267 201.697 81.6401 202.104 80.8296Z" fill="#FFDE56"/>
<path d="M176.61 71.1933L176.609 71.2023L176.614 71.2043L176.61 71.1933Z" fill="#68974C"/>
<path d="M197.981 75.5057C197.348 75.1488 197.198 74.3028 196.122 74.4106C195.793 73.9881 195.354 73.6655 194.852 73.479C194.351 73.2925 193.807 73.2496 193.283 73.3551C193.294 73.2273 193.376 73.0018 193.306 72.9866C190.91 72.274 188.389 72.0854 185.913 72.4333C184.579 72.799 183.534 72.4213 182.134 73.0104C181.058 73.0959 179.993 73.2817 178.952 73.5654C177.883 73.7554 176.589 74.626 175.747 74.203C176.091 73.5368 176.623 73.5917 177.043 73.4619C178.32 73.067 179.593 72.7397 180.882 72.382C181.846 72.272 182.817 72.1589 183.792 72.0492C188.686 71.4992 193.33 71.5559 196.77 73.71C197.059 73.8908 197.335 74.4575 197.962 73.8539C198.542 73.2957 197.849 73.0697 197.743 72.6851C197.726 72.6243 197.573 72.6471 197.517 72.6C195.95 71.2648 193.546 71.0229 191.304 70.632L188.06 70.5466C186.829 70.6084 185.604 70.7647 184.396 71.0143C183.061 71.1116 181.494 71.6628 180.095 71.8589C178.591 72.2576 177.119 72.7697 175.692 73.3907C174.322 73.9207 173.828 72.3899 172.396 72.5256C172.327 72.5001 172.255 72.4861 172.181 72.4843C171.842 72.2259 171.452 72.0423 171.036 71.9459C170.621 71.8495 170.19 71.8425 169.771 71.925C169.315 71.6983 168.628 71.929 168.048 71.9559C165.632 71.4509 162.902 72.0386 159.865 73.6853L159.379 73.8198C158.548 74.5793 157.753 74.402 156.936 74.9683C155.043 75.2221 152.941 76.1858 151.169 76.2062C151.009 76.2065 150.853 76.2549 150.721 76.345C150.589 76.435 150.487 76.5626 150.429 76.7113C150.31 77.0597 150.475 77.3513 150.745 77.3013C151.964 77.0755 152.751 77.5774 153.806 77.6414L153.834 77.5913C154.088 76.91 154.407 76.9025 154.744 77.0771L154.765 77.0637C155.168 76.1163 156.011 76.2004 156.601 75.6824C157.662 75.2178 158.731 74.7503 159.807 74.2797L161.769 73.6285C162.008 73.4526 162.299 73.3602 162.596 73.3654C163.032 73.1224 163.511 72.9691 164.007 72.9144L164.655 72.8057C164.939 72.4878 165.264 72.2757 165.491 72.4169C166.06 72.7716 166.958 72.5583 167.702 72.6211C169.837 72.7186 171.93 73.2479 173.855 74.177C174.428 75.0389 176.277 74.8765 175.628 76.7579C175.52 77.0717 175.918 76.8745 176.139 76.7416C176.564 76.4858 176.984 76.2034 177.407 75.9315L177.398 75.931L177.809 75.6576L177.791 75.689C177.915 75.6942 178.04 75.6722 178.155 75.6244C178.27 75.5766 178.374 75.5042 178.458 75.4124L178.455 75.4155C179.376 75.1365 180.27 74.7743 181.126 74.3334L183.582 73.7379C183.896 73.6625 184.209 73.5869 184.522 73.511C187.229 72.9841 190.018 73.0677 192.688 73.7559C193.604 74.312 194.596 74.7321 195.632 75.0032C195.908 75.6566 196.648 75.8867 197.267 76.2258C197.395 76.2469 197.527 76.2424 197.654 76.2125C197.78 76.1826 197.9 76.1278 198.006 76.0515C198.314 75.8025 198.147 75.5993 197.981 75.5057Z" fill="#FFDE56"/>
<path d="M159.376 73.8204L159.379 73.8197L159.391 73.8097L159.376 73.8204Z" fill="#68974C"/>
<path d="M177.129 71.1893C177.09 71.6552 177.198 71.8761 177.829 71.8222C178.852 71.6003 179.861 71.3184 180.851 70.9783C181.675 70.9552 182.488 70.7817 183.25 70.4662L183.243 70.5031C184.351 70.4917 185.449 70.2987 186.494 69.9317L190.316 69.9241L191.942 69.9957L191.936 69.9779C192.41 70.4132 193.304 70.2344 194.033 70.3056L194.025 70.2899C194.165 70.7464 194.903 70.4769 195.231 70.7079C195.316 70.7466 195.401 70.785 195.486 70.823C196.043 70.8713 196.271 71.4147 197.372 70.973C197.092 70.5546 196.848 70.1911 196.605 69.8284C196.064 69.4046 195.525 68.9827 194.988 68.5629C193.796 68.0656 192.616 67.5728 191.446 67.0845C190.684 66.6693 189.823 66.4667 188.956 66.4979C185.136 65.8724 181.233 65.9678 177.449 66.7793C177.118 67.016 176.716 67.1336 176.309 67.1132C176.319 66.9454 176.346 66.7477 176.041 67.0867L176.061 67.0907C175.36 66.9971 174.648 67.1529 174.051 67.5308C174.259 67.9051 174.414 68.1861 174.571 68.4678C174.703 69.0162 175.018 69.5033 175.464 69.8494C175.582 70.5232 177.07 70.0176 176.619 71.1889C176.901 70.9726 176.989 71.1309 177.129 71.1893Z" fill="#FFDE56"/>
<path d="M176.61 71.1932L176.614 71.2041L176.618 71.1887L176.61 71.1932Z" fill="#68974C"/>
<path d="M159.376 73.8206L159.391 73.8097C159.385 73.799 159.375 73.7969 159.368 73.788C159.373 73.7988 159.367 73.81 159.376 73.8206Z" fill="#68974C"/>
<path d="M159.636 73.289L159.66 73.291C161.769 72.2639 163.885 71.309 165.839 71.2618C167.27 71.0555 168.72 71.026 170.158 71.1743C171.722 71.4776 173.251 71.9465 174.716 72.5731C174.892 72.7316 175.122 72.8168 175.359 72.8114C175.595 72.8059 175.821 72.7101 175.99 72.5437C176.656 72.0631 176.536 71.6392 176.61 71.202C176.012 70.8866 175.363 70.6815 174.693 70.5963C174.105 70.4678 173.552 70.2126 173.073 69.8486C170.944 69.4924 168.772 69.4734 166.638 69.7922C166.198 69.5451 165.541 70.1922 164.99 70.2796C163.617 70.3436 162.279 70.7258 161.079 71.3962C160.384 71.856 159.657 72.2656 158.904 72.6221C158.172 73.0137 157.405 72.9643 156.705 73.7821C155.919 73.5151 154.915 74.0265 153.925 74.5085C153.719 74.2609 152.923 75.0374 152.947 74.4577C152.959 74.1551 153.294 73.9522 153.6 73.8747C154.405 73.8131 155.19 73.5954 155.911 73.2339L155.9 73.2464C156.408 73.2509 156.901 73.072 157.288 72.7424C159.057 72.1024 160.85 70.9256 162.658 70.0924C164.45 69.5916 166.289 69.2792 168.145 69.1603C169.487 69.1723 170.841 69.1845 172.209 69.1969C172.584 69.1593 172.875 69.5234 173.39 68.8579C173.799 68.3294 173.682 68.0555 173.335 67.8817C173.202 67.8153 173.202 67.5961 173.142 67.4465L172.708 67.3782C172.807 66.7941 172.452 66.5836 172.068 66.3873C171.039 65.862 170.504 64.838 169.34 64.4721C168.787 64.2759 168.182 64.2847 167.635 64.4972C167.113 63.5254 165.683 64.0696 164.482 64.2508C163.453 64.616 162.399 64.9102 161.329 65.1313C160.423 65.2417 159.559 65.5756 158.815 66.1033L158.826 66.0954C158.746 66.0959 158.667 66.121 158.602 66.1676C158.537 66.2141 158.487 66.2798 158.461 66.3554C158.267 66.292 158.044 66.4054 157.805 66.6111C157.225 66.9088 156.646 67.2055 156.03 67.5211C156.762 66.5198 157.789 65.7741 158.968 65.3899C160.671 64.8311 162.388 64.2873 164.126 63.7283C165.49 63.4917 166.883 63.4739 168.253 63.6752C169.945 63.9127 171.526 64.6565 172.788 65.8089C172.972 66.4548 173.408 66.8144 174.346 66.6083C175.035 66.2096 174.813 65.8589 174.901 65.492C174.901 65.3812 174.901 65.2702 174.901 65.159C174.925 65.1346 174.944 65.1056 174.957 65.0736C174.969 65.0416 174.975 65.0074 174.975 64.973C175.222 64.5688 175.316 64.0891 175.239 63.6216L175.247 63.6295C175.37 63.3977 175.397 63.2081 175.286 63.0794L175.292 63.0895C175.34 62.9379 175.416 62.766 175.177 62.8196L175.214 62.8025C175.316 62.6391 175.377 62.4534 175.392 62.2613C175.407 62.0692 175.375 61.8764 175.299 61.6994C174.762 60.4024 174.55 58.865 173.307 58.1473C173.235 57.7454 172.88 57.651 172.455 57.6343L172.454 57.6509C171.819 57.1533 171.014 56.9251 170.213 57.0152C168.975 56.9209 167.73 56.9684 166.503 57.1571C166.396 57.1401 166.287 57.1506 166.185 57.1875C166.083 57.2244 165.992 57.2866 165.921 57.3681L165.939 57.3537C165.201 57.3957 164.481 57.5997 163.83 57.951L163.84 57.931C163.638 58.0004 163.437 58.0697 163.236 58.1391C162.296 58.9606 161.536 58.6835 160.606 59.2578C158.36 60.5712 156.198 62.024 154.134 63.6078C151.736 65.5751 149.546 67.7827 147.598 70.1959C146.797 70.938 146.124 71.8078 145.608 72.77C145.237 73.0972 144.939 73.499 144.733 73.9492L144.74 73.9468C143.886 74.8779 143.181 75.9361 142.652 77.0834L142.668 77.0754C142.458 77.2254 142.149 77.5227 142.059 77.4964C141.83 77.4291 142.109 77.1139 142.244 76.8993C142.811 76 143.391 75.102 143.968 74.2018C144.759 72.9003 144.781 72.5331 144.057 72.9083C142.914 73.3691 141.851 74.0078 140.907 74.8006C140.773 74.7926 140.663 74.9021 140.558 75.0356L140.56 75.0325C139.23 76.0528 138.035 77.2373 137.003 78.5578C135.257 80.436 133.616 82.4081 132.085 84.4653C131.288 85.3506 130.583 86.3142 129.98 87.3414L129.998 87.3351C129.644 87.6486 129.369 88.0418 129.197 88.4823C129.138 88.4979 129.083 88.5291 129.04 88.5725C128.996 88.6159 128.965 88.6701 128.95 88.7295C127.866 90.5274 126.882 92.3843 126.004 94.2912C125.477 95.3054 125.081 96.3819 124.824 97.4953L124.76 97.5699C124.42 98.1185 124.284 98.7693 124.376 99.4081L124.25 99.7772C123.998 100.221 123.859 100.72 123.846 101.231C123.833 101.741 123.946 102.247 124.176 102.703C124.244 102.906 124.312 103.109 124.38 103.312L124.478 103.573H124.475C124.451 103.778 124.573 103.835 124.708 103.878C124.887 104.49 125.379 104.779 125.781 105.166C126.242 105.699 126.809 106.129 127.446 106.431C128.374 107.239 129.474 107.823 130.663 108.14C130.997 108.297 131.197 108.646 131.658 108.627C134.777 110.131 138.076 111.231 141.473 111.902C144.009 112.493 146.575 112.951 149.159 113.272C150.282 113.461 151.428 113.481 152.557 113.331C152.913 113.529 153.446 113.23 153.865 113.256C154.419 113.39 155.002 113.306 155.495 113.021L155.492 113.023C156.174 113.156 156.881 113.072 157.513 112.783C158.415 112.804 159.432 112.152 160.358 112.09C160.583 112.148 160.819 112.144 161.042 112.078C161.264 112.012 161.464 111.886 161.62 111.714C161.961 111.75 162.306 111.718 162.634 111.619C162.962 111.52 163.267 111.355 163.53 111.136L163.532 111.17C163.655 111.186 163.781 111.175 163.899 111.137C164.018 111.1 164.127 111.038 164.219 110.954C164.567 110.95 164.903 110.821 165.164 110.591C166.032 110.415 166.827 109.98 167.442 109.343C166.919 108.716 165.871 108.947 165.082 108.766L161.178 108.143L156.989 107.515L156.773 107.423C155.359 106.816 153.896 106.331 152.399 105.974L151.687 105.87L151.066 105.762C151.046 105.732 151.018 105.709 150.984 105.697C150.951 105.684 150.914 105.683 150.88 105.692C150.928 105.482 150.995 105.254 150.804 105.18C148.495 104.288 146.429 103.127 143.995 102.579C143.715 102.69 143.412 102.727 143.114 102.687C142.816 102.646 142.534 102.529 142.294 102.348C142.003 102.077 141.635 101.904 141.241 101.849C140.847 101.795 140.446 101.864 140.092 102.045C139.58 102.095 139.068 101.964 138.642 101.675C138.217 101.386 137.906 100.958 137.764 100.464C137.798 98.8391 140.457 95.6112 141.99 95.2427C142.217 95.1349 142.444 95.0271 142.67 94.919L142.729 94.9407L142.809 94.9007C142.903 94.9168 143 94.9096 143.091 94.88C143.181 94.8504 143.264 94.7992 143.33 94.7307C144.22 94.5926 145.124 94.5831 146.017 94.7026C146.864 94.8699 147.72 95.0335 148.581 95.2004C149.179 95.3928 149.959 95.3528 150.226 95.9896C152.132 96.7058 154.026 97.498 156.051 98.1571C158.449 99.0857 160.928 99.7884 163.457 100.256L168.524 100.87C170 101.018 171.487 100.979 172.953 100.753H172.954C174.839 100.642 176.703 100.303 178.506 99.7427L178.502 99.7466L179.191 99.5672C179.679 99.4916 180.169 99.4157 180.66 99.3396C181.549 98.7665 182.227 97.9193 182.592 96.9264C183.051 95.2283 183.03 93.436 182.531 91.7491C182.873 91.0381 182.523 90.6659 182.303 90.2318L182.299 90.2372C182.26 90.1372 182.221 90.0379 182.182 89.9382L182.186 89.9397C182.32 89.6327 181.795 89.4807 182.377 89.0683C181.312 88.9594 180.237 89.0223 179.193 89.2547C177.88 89.3318 176.564 89.2961 175.257 89.1481C174.999 89.136 174.678 88.896 174.4 89.3537C174.196 89.69 174.582 89.7763 174.782 89.9125C174.191 90.769 174.106 90.8188 173.833 90.43C173.573 90.06 173.487 89.5729 173.247 89.1775C172.72 88.3075 171.436 88.3342 170.834 87.6107C170.737 87.4948 170.364 87.5581 170.61 87.2287C170.885 86.8617 171.099 86.9582 171.292 87.0831C171.429 87.1476 171.574 87.1947 171.722 87.2231C172.621 87.8768 173.667 88.298 174.768 88.449C176.637 88.7679 178.544 88.8047 180.425 88.5582C182.064 88.442 183.661 87.9865 185.115 87.2206C187.056 86.6846 188.583 85.101 190.305 83.9505L191.336 83.6485C191.589 83.7479 191.867 83.7583 192.126 83.678C192.386 83.5976 192.61 83.4315 192.762 83.2068C192.966 83.1084 193.161 82.9908 193.344 82.8554C193.366 82.2988 192.846 82.4181 192.318 82.5169C188.91 83.1809 185.453 83.554 181.982 83.6324L181.395 83.6723C181.273 83.5333 181.074 83.566 180.832 83.6987C178.982 83.6371 177.137 83.4676 175.307 83.1909C174.681 83.155 174.094 82.8779 173.669 82.4181C173.465 82.2884 173.262 82.1593 173.059 82.0303C172.951 81.9498 172.842 81.8697 172.734 81.7901C171.988 82.0322 171.87 82.7645 171.351 83.1813L171.008 83.4177L169.19 84.4295C169.075 84.4183 168.959 84.4331 168.85 84.4728C168.742 84.5124 168.643 84.576 168.562 84.6588C168.441 84.6398 168.318 84.6534 168.204 84.6981C168.09 84.7428 167.99 84.8171 167.915 84.9132L167.918 84.8824C165.014 85.2229 162.081 85.255 159.169 84.9781C158.778 84.9561 158.49 84.6935 157.93 85.0773C156.903 84.6873 155.885 84.3006 154.876 83.9172C154.487 84.0632 154.334 83.8217 154.059 83.7817C154.12 83.5228 153.967 83.473 153.761 83.4762L153.763 83.4908C153.67 83.306 153.527 83.1507 153.35 83.0422C153.174 82.9337 152.971 82.8762 152.763 82.8762L152.744 82.8938C152.817 82.5305 152.614 82.4528 152.298 82.4919C152.283 82.4317 152.246 82.3792 152.195 82.3451L152.055 82.093L151.588 81.3013L151.952 81.0312C152.148 81.2097 152.344 81.3886 152.541 81.568C152.831 81.7761 153.131 81.9755 153.413 82.196C154.589 83.344 156.159 83.9987 157.802 84.026C159.399 84.65 161.43 84.5591 163.412 84.6061C164.617 84.7664 165.843 84.6752 167.012 84.3382L166.992 84.3533C167.347 84.3533 167.656 84.5133 168.129 84.1227C169.008 83.3854 169.869 83.9056 170.759 82.9927C171.483 82.6218 172.028 81.9637 171.955 81.4927C171.866 80.9141 171.068 81.5594 170.559 81.7358C170.532 81.726 170.502 81.7232 170.473 81.7275C170.444 81.7319 170.416 81.7432 170.393 81.7607L169.877 81.9852L169.788 81.977L169.263 82.2245C169.224 82.1979 169.174 82.209 169.114 82.2575C168.588 82.2631 168.072 82.4114 167.623 82.6866L167.638 82.6727C166.377 82.8717 165.125 83.0692 163.885 83.2651C162.504 83.1857 161.137 83.1072 159.783 83.0296C158.867 82.8258 157.957 82.6236 157.053 82.4228L156.801 82.4159C156.738 82.2941 156.643 82.1928 156.524 82.124C156.406 82.0552 156.271 82.0219 156.134 82.0281L156.119 82.0498C156.119 81.7432 155.837 81.7698 155.6 81.7441C155.633 81.5154 155.458 81.4971 155.295 81.4673C155.323 81.2423 155.139 81.2306 154.985 81.1885V81.1943C154.693 80.9104 154.402 80.6273 154.112 80.3452L154.099 80.3652C154.077 80.1777 154.002 80.0004 153.882 79.8545C153.762 79.7086 153.603 79.6003 153.423 79.5425C153.419 79.5525 153.422 79.5555 153.418 79.5649L153.336 79.2949H153.342C153.375 79.0602 153.186 79.0536 153.031 79.013C152.958 78.7687 152.836 78.542 152.671 78.3474C152.506 78.1528 152.303 77.9944 152.074 77.8822C151.845 77.77 151.595 77.7064 151.34 77.6955C151.086 77.6847 150.831 77.7267 150.594 77.819C149.785 78.0275 149.435 77.3778 149.898 76.5025C150.074 76.1657 150.339 75.8842 150.665 75.6897C150.991 75.4952 151.365 75.3952 151.745 75.4011C152.572 75.4361 153.4 75.3591 154.206 75.1723L156.298 74.605C156.568 74.5107 156.814 74.5714 157.111 74.3011L157.102 74.31C157.321 74.3147 157.538 74.2727 157.739 74.1869C157.94 74.101 158.12 73.9733 158.268 73.8122C158.498 74.067 159.149 73.5122 159.368 73.791C159.287 73.6276 159.535 73.4558 159.636 73.289ZM165.059 85.7547C165.594 85.5163 165.582 85.7103 165.282 86.1288C163.595 86.9808 161.835 87.6804 160.023 88.2193C159.176 88.3005 158.342 88.4924 157.544 88.79C156.95 88.8891 156.354 88.9977 155.77 89.0805C155.564 89.1096 155.079 89.7218 155.177 89.126C155.24 88.746 155.659 88.6992 155.928 88.5205C156.666 88.519 157.397 88.3726 158.079 88.0895C158.093 88.1327 158.127 88.1333 158.182 88.0914C158.297 88.1171 158.416 88.1093 158.526 88.069C158.637 88.0286 158.733 87.9575 158.804 87.864C159.478 87.539 160.217 87.3728 160.965 87.3779C161.398 87.22 161.835 87.2757 162.264 86.7772L162.266 86.8078C162.529 86.8273 162.793 86.794 163.043 86.711C163.294 86.628 163.526 86.4964 163.725 86.3236L163.72 86.357C164.166 86.1569 164.612 85.9542 165.059 85.7547ZM137.247 104.42C134.816 104.813 133.875 102.405 135.49 100.025C135.149 102.233 135.466 103.872 137.247 104.42Z" fill="#FFDE56"/>
<path d="M176.002 62.0592C175.974 62.8602 175.9 63.659 175.782 64.4516C175.706 64.9646 175.182 65.7946 175.378 66.1203C175.61 66.5047 176.564 66.3159 177.115 66.2292C182.186 65.3694 187.371 65.4316 192.42 66.413C192.798 65.5238 193.057 64.5885 193.189 63.6315C193.275 63.2062 193.331 62.7754 193.355 62.3422C193.362 61.8162 193.285 61.2925 193.129 60.7903C192.916 59.7611 192.32 58.851 191.462 58.244C190.307 57.5367 188.55 57.5567 186.807 57.7108C185.113 57.8408 183.437 58.1477 181.807 58.6264C180.667 58.972 179.51 59.4336 178.363 59.8911L176.786 60.5202C176.541 60.5979 176.321 60.7394 176.149 60.9302C176.046 61.0739 175.998 61.2493 176.012 61.4253C176.012 61.6347 176.009 61.846 176.002 62.0592Z" fill="#FFDE56"/>
<path d="M174.303 107.96L173.805 108.338C174.002 108.261 174.219 108.21 174.303 107.96Z" fill="#68974C"/>
<path d="M146.547 71.346C145.794 71.9802 144.956 72.5057 144.057 72.9071C142.185 73.8526 139.663 74.3166 130.831 86.0312C122.252 97.4102 124.285 103.051 124.38 103.311C124.475 103.572 129.647 107.824 129.647 107.824C129.647 107.824 146.546 112.922 152.556 113.33C157.812 113.583 163.016 112.189 167.442 109.342C172.204 109.31 182.107 98.657 182.44 97.4953C182.773 96.3336 183.284 93.6046 182.377 89.0662L181.927 88.3324C184.976 87.4252 187.821 85.9363 190.305 83.9478L190.855 83.7867L191.355 83.6187C191.602 83.7122 191.874 83.7223 192.127 83.6474C192.381 83.5726 192.604 83.4169 192.761 83.2041L193.311 82.8841L197.268 76.226C197.268 76.226 198.736 73.4602 196.606 69.8288L189.789 67.1342L192.49 66.3582C192.49 66.3582 197.176 55.7635 184.607 57.986L174.983 60.8366C174.983 60.8366 174.647 54.1062 163.236 58.1378C152.591 61.8986 147.714 71.4724 146.547 71.346Z" fill="#FFDE56"/>
<path d="M165.067 73.1036C168.438 72.9023 171.789 73.752 174.657 75.5352C175.299 75.932 175.333 76.5051 174.749 77.4163C173.616 79.1837 172.472 80.7056 170.202 81.3698C162.524 83.616 156.851 83.1743 153.816 78.7841C153.739 78.7102 153.678 78.6217 153.636 78.524C153.595 78.4263 153.572 78.3212 153.572 78.2149C153.571 78.1086 153.591 78.0033 153.631 77.9049C153.671 77.8064 153.731 77.717 153.806 77.6417L153.834 77.5916C154.165 77.72 154.448 77.3372 154.744 77.0775L154.765 77.0642C156.957 75.9229 159.219 74.9189 161.536 74.0581C162.42 74.3552 161.296 74.7469 161.058 74.9621C159.309 76.5482 157.998 78.2361 157.787 80.0352C157.587 81.742 158.919 81.9746 160.371 82.031C160.562 82.0384 160.749 82.0548 160.941 82.061C162.226 82.0009 163.474 81.6078 164.562 80.9204C165.649 80.233 166.539 79.2748 167.145 78.1397C168.519 75.6347 167.784 73.5353 165.524 73.4296C165.123 73.4109 164.713 73.4104 164.309 73.4015L164.458 73.1815L165.067 73.1036Z" fill="#DF9800"/>
<path d="M197.191 77.3593C194.953 75.2693 192.044 74.0441 188.985 73.903C185.433 73.4885 181.565 74.4666 177.499 76.487C175.928 77.2316 174.559 78.3455 173.511 79.7335C172.815 80.6672 172.806 80.9896 173.429 81.3819C175.353 82.5934 178 82.7819 180.649 83.0642C181.694 83.361 183.06 83.0141 184.268 83.0164C187.414 82.7729 190.543 82.3321 193.634 81.6965C195.07 81.3881 196.349 80.5764 197.239 79.4081C197.997 78.434 197.708 77.7873 197.191 77.3593ZM184.543 82.5092C183.339 82.6702 182.122 82.711 180.91 82.631C178.98 82.2355 178.639 81.0682 179.817 78.9544C181.331 76.2372 183.937 74.3431 186.384 74.1778C187.146 74.1952 187.904 74.3073 188.639 74.5119C189.03 74.8175 189.336 75.2189 189.527 75.677C189.718 76.1351 189.787 76.6346 189.729 77.1274C189.398 79.4354 187.472 81.4411 184.543 82.5092Z" fill="#DF9800"/>
<path d="M165.067 73.1036L164.459 73.1814L164.31 73.4014C164.714 73.4103 165.123 73.4109 165.524 73.4296C167.785 73.535 168.519 75.6343 167.146 78.1396C166.54 79.2748 165.65 80.233 164.562 80.9204C163.475 81.6078 162.227 82.0008 160.942 82.0609C160.75 82.0549 160.563 82.0385 160.372 82.0309C158.92 81.9745 157.588 81.742 157.788 80.0352C157.999 78.2361 159.309 76.5481 161.059 74.962C161.296 74.7468 162.421 74.3551 161.537 74.058L161.769 73.6287C162.009 73.4528 162.299 73.3603 162.597 73.3655C162.933 73.8349 163.348 73.9405 164.007 72.9147L164.655 72.8058L165.067 73.1036ZM165.71 76.6084C165.86 76.1033 165.69 75.8233 165.2 75.832C164.938 75.8101 164.676 75.8676 164.447 75.9969C164.219 76.1263 164.034 76.3216 163.918 76.5574C163.573 77.1874 163.765 77.5362 164.255 77.562C164.559 77.5401 164.852 77.441 165.106 77.2742C165.361 77.1073 165.569 76.8781 165.71 76.6084ZM162.525 75.0951C162.374 75.4851 162.402 75.7463 162.782 75.7498C162.98 75.7328 163.171 75.6658 163.336 75.5552C163.502 75.4446 163.637 75.2938 163.728 75.1171C163.937 74.7471 163.8 74.4707 163.468 74.4572C163.271 74.4808 163.083 74.5509 162.919 74.6619C162.755 74.7728 162.62 74.9214 162.525 75.0951Z" fill="#FFDE56"/>
<path d="M165.71 76.6084C165.569 76.8781 165.361 77.1072 165.106 77.2741C164.852 77.441 164.559 77.5401 164.255 77.5621C163.765 77.5363 163.574 77.1875 163.918 76.5574C164.034 76.3217 164.219 76.1264 164.448 75.997C164.676 75.8676 164.939 75.8102 165.201 75.8321C165.691 75.8234 165.86 76.1033 165.71 76.6084Z" fill="#FFDE56"/>
<path d="M162.525 75.0951C162.62 74.9214 162.755 74.7728 162.919 74.6619C163.083 74.5509 163.271 74.4808 163.468 74.4572C163.8 74.4707 163.937 74.7466 163.728 75.1171C163.637 75.2938 163.502 75.4446 163.336 75.5552C163.171 75.6658 162.98 75.7328 162.782 75.7498C162.402 75.7463 162.374 75.4853 162.525 75.0951Z" fill="#FFDE56"/>
<path d="M165.068 85.7051C164.894 85.7692 164.729 85.855 164.577 85.9606C163.216 86.6662 161.758 87.1663 160.25 87.4446C159.006 87.8957 157.73 88.2519 156.432 88.51C156.223 88.5204 156.016 88.56 155.818 88.6277C155.656 88.6916 155.247 88.9477 155.26 89.1427C155.274 89.3661 155.889 89.1638 156.07 89.1095C157.712 88.6167 159.29 88.478 160.973 87.9466C162.354 87.4674 163.701 86.8937 165.004 86.2296C165.126 86.1811 165.236 86.1036 165.322 86.0038C165.454 85.8238 165.332 85.6649 165.15 85.6879C165.122 85.6915 165.095 85.6974 165.068 85.7051Z" fill="#F9B500"/>
<path d="M168.563 84.6558C168.555 84.6636 168.546 84.6627 168.538 84.671L168.563 84.6558Z" fill="#0F1B0D"/>
<path d="M169.193 84.4263H169.19L169.175 84.4347L169.193 84.4263Z" fill="#0F1B0D"/>
<path d="M176.157 62.3002L176.153 62.3096C176.157 62.3088 176.155 62.3127 176.159 62.3118L176.157 62.3002Z" fill="#0F1B0D"/>
<path d="M175.842 64.7053L175.839 64.7123L175.841 64.7143L175.842 64.7053Z" fill="#0F1B0D"/>
<path d="M161.618 111.712H161.619L161.622 111.71L161.618 111.712Z" fill="#0F1B0D"/>
<path d="M155.6 81.751C155.601 81.7466 155.599 81.7449 155.6 81.741L155.591 81.7404L155.6 81.751Z" fill="#0F1B0D"/>
<path d="M129.2 88.4789L129.197 88.4811L129.189 88.4962L129.2 88.4789Z" fill="#0F1B0D"/>
<path d="M198.467 77.1819C199.766 76.1506 199.213 75.7151 198.722 75.2433C198.53 75.0594 198.479 74.8233 198.687 74.4086C199.39 73.0117 198.993 72.1918 197.944 71.7666C197.68 71.6597 197.335 71.6276 197.717 71.1178C198.301 70.3365 197.896 69.9961 197.566 69.6473C196.554 68.5211 195.286 67.6542 193.869 67.1193C193.101 66.8426 192.961 66.4048 193.303 65.4278C195.445 59.2965 193.21 56.271 187.187 56.8977C183.932 57.3098 180.763 58.2396 177.802 59.652C176.256 60.3558 175.506 60.3957 175.303 59.272C175.152 58.8184 174.87 58.4199 174.492 58.1277C171.655 55.1477 164.534 56.1637 158.093 60.221C153.598 63.162 149.625 66.8317 146.337 71.0791C146.018 71.4741 145.81 71.8991 145.229 72.021C143.111 72.5794 141.193 73.7239 139.695 75.3229C132.854 82.0629 127.39 89.1083 124.456 97.1413C123.062 100.961 123.083 103.907 125.382 105.558C126.057 106.043 126.65 106.642 127.364 107.094C131.493 109.709 136.522 111.341 142.061 112.611C146.237 113.569 150.624 114.45 155.946 113.64C160.503 113.056 164.9 111.579 168.886 109.294C170.565 109.654 172.314 109.492 173.899 108.831C175.355 108.246 176.689 107.373 176.96 105.862C177.18 104.638 177.883 104.222 179.081 103.771C181.522 102.851 182.547 101.871 183.076 100.238C183.124 100.124 183.15 100.001 183.15 99.877C183.151 99.7528 183.127 99.6297 183.08 99.5149C183.032 99.4001 182.963 99.2959 182.875 99.2083C182.787 99.1207 182.682 99.0514 182.568 99.0046C182.207 98.8479 182.29 98.6517 182.48 98.2817C183.31 96.8812 183.742 95.2808 183.73 93.6529C183.718 92.0249 183.261 90.4312 182.41 89.0434C182.453 88.9157 182.529 88.8017 182.63 88.7132C182.732 88.6247 182.855 88.5648 182.987 88.5398C185.474 87.9019 187.773 86.6804 189.693 84.9766C189.9 84.7766 190.157 84.6355 190.436 84.5679C192.02 84.2034 193.799 84.2285 194.64 81.9759C197.055 80.7626 198.663 79.2642 198.467 77.1819ZM197.517 72.6C197.572 72.6471 197.726 72.6243 197.743 72.6851C197.848 73.0697 198.542 73.2957 197.962 73.8539C197.334 74.4575 197.059 73.8908 196.77 73.71C193.33 71.5559 188.686 71.499 183.792 72.0492C182.817 72.1589 181.847 72.2699 180.882 72.3821C179.593 72.7397 178.32 73.0671 177.043 73.4621C176.623 73.5921 176.091 73.537 175.747 74.2032C176.589 74.6262 177.883 73.756 178.952 73.5656C179.993 73.2818 181.058 73.0959 182.134 73.0104C183.533 72.4213 184.579 72.7992 185.913 72.4335C188.389 72.0855 190.91 72.2741 193.306 72.9867C193.376 73.0019 193.294 73.2274 193.283 73.355C193.807 73.2496 194.351 73.2927 194.852 73.4792C195.354 73.6657 195.793 73.9883 196.121 74.4108C197.198 74.303 197.348 75.149 197.981 75.5059C198.147 75.5995 198.314 75.8023 198.006 76.0519C197.901 76.1283 197.781 76.183 197.654 76.2129C197.527 76.2428 197.396 76.2473 197.267 76.2262C196.648 75.8871 195.909 75.6571 195.633 75.0037C194.596 74.7327 193.604 74.3125 192.689 73.7564C190.019 73.0683 187.229 72.9846 184.523 73.5115C184.209 73.5873 183.896 73.6629 183.583 73.7383L181.127 74.3335C180.271 74.7745 179.377 75.1368 178.456 75.4158L178.472 75.4036C178.387 75.4984 178.281 75.5732 178.164 75.6226C178.046 75.672 177.919 75.6948 177.792 75.6894L177.81 75.6579L177.383 75.9414L177.408 75.9314C176.984 76.2036 176.565 76.486 176.14 76.7415C175.919 76.8744 175.521 77.0714 175.629 76.7578C176.278 74.8764 174.429 75.0388 173.856 74.1769C171.931 73.2478 169.838 72.7185 167.702 72.621C166.959 72.5582 166.06 72.7711 165.492 72.4168C165.265 72.2755 164.94 72.4877 164.656 72.8056L165.067 73.1031C168.438 72.9017 171.789 73.7513 174.658 75.5347C175.3 75.9315 175.334 76.5046 174.75 77.4159C173.617 79.1832 172.473 80.7049 170.203 81.3693C162.525 83.6154 156.852 83.1738 153.817 78.7836C153.74 78.7096 153.679 78.6212 153.637 78.5235C153.595 78.4258 153.574 78.3207 153.573 78.2144C153.572 78.1081 153.592 78.0028 153.632 77.9043C153.672 77.8059 153.731 77.7164 153.807 77.6411C152.751 77.5767 151.965 77.075 150.746 77.3012C150.476 77.3512 150.31 77.0594 150.429 76.7111C150.488 76.5624 150.589 76.4348 150.721 76.3448C150.853 76.2547 151.009 76.2064 151.169 76.2061C152.942 76.1861 155.044 75.2219 156.936 74.9678C157.753 74.4019 158.548 74.579 159.379 73.8197L159.866 73.6851C162.903 72.0384 165.632 71.4507 168.048 71.9558C168.629 71.9288 169.316 71.6981 169.772 71.9248C170.19 71.8423 170.622 71.8494 171.037 71.9458C171.452 72.0422 171.843 72.2257 172.182 72.484C172.255 72.4859 172.328 72.4999 172.397 72.5254C173.828 72.3897 174.323 73.9206 175.693 73.3905C177.12 72.7695 178.591 72.2575 180.095 71.8588C181.495 71.6628 183.061 71.1115 184.397 71.0142C185.604 70.7646 186.829 70.6083 188.06 70.5467L191.304 70.6319C193.547 71.0226 195.95 71.2648 197.517 72.6ZM194.945 68.607C195.98 69.1171 196.815 69.9583 197.317 70.997C196.552 71.1454 195.76 71.0505 195.052 70.7255C190.478 69.1912 184.433 70.0331 178.594 71.6348C177.975 71.8048 177.236 71.9448 177.114 71.4993C177.103 71.3844 177.08 71.2711 177.044 71.1615C176.991 71.0688 176.831 71.0401 176.689 71.1541C176.803 70.572 176.288 70.3479 175.872 70.1254C175.204 69.7741 174.68 69.2004 174.391 68.5038C174.3 68.2873 173.961 67.7776 174.334 67.4239C174.634 67.1385 175.834 67.0892 176.161 67.029L177.4 66.8006C177.986 66.6928 178.573 66.5845 179.157 66.4915C184.877 65.5809 190.202 66.1814 194.36 68.2926C194.558 68.3925 194.754 68.4974 194.945 68.607ZM178.179 59.9451C178.588 59.901 178.98 59.7595 179.322 59.5325C180.334 59.0401 181.401 58.6716 182.501 58.4349C184.285 57.9928 186.11 57.7343 187.947 57.6632C191.572 57.3285 193.01 59.0476 193.328 61.8916C193.42 62.1402 193.446 62.4087 193.403 62.6704C193.36 62.9322 193.249 63.1781 193.081 63.3837H193.067C193.445 64.1932 192.651 65.3582 192.489 66.3582C191.82 66.6282 191.664 66.206 191.233 66.2049C188.234 65.6788 185.183 65.5012 182.143 65.6756C180.953 65.6556 179.539 66.1327 178.432 65.9788C177.551 66.1814 176.651 66.2932 175.747 66.3127C174.834 66.1927 175.592 65.3403 175.838 64.7127C175.589 64.6448 175.759 64.3966 175.881 64.1692L175.884 64.1786C175.758 63.5433 175.853 62.8841 176.151 62.3095C175.93 62.3507 175.982 62.1985 176.043 62.0395L176.047 62.0507C175.863 60.8446 175.863 60.8447 178.179 59.9451ZM182.235 99.7726L182.254 99.7814C182.364 99.9143 182.473 100.047 182.583 100.18C182.46 100.739 182.19 101.254 181.801 101.674C181.413 102.094 180.919 102.402 180.372 102.569C178.79 103.655 176.897 104.196 174.98 104.109C173.96 104.347 172.904 104.39 171.868 104.238L169.838 104.048C169.613 104.111 169.381 104.148 169.147 104.157C164.871 103.845 160.637 103.109 156.507 101.96C153.923 101.206 151.379 100.323 148.885 99.3139C148.175 99.1864 147.772 98.62 146.985 98.6153L146.428 98.7979C146.376 99.8434 147.775 99.0811 148.083 99.7663C148.284 100.214 148.971 100.209 149.543 100.258C149.778 100.295 150.076 100.259 150.073 100.581C151.105 100.786 152.271 100.823 152.778 101.764C155.258 101.953 157.045 103.342 159.691 103.416L169.548 104.933C171.67 105.157 173.812 105.092 175.916 104.739C176.642 104.612 176.592 105.097 176.41 105.548C176.134 106.124 175.821 106.68 175.473 107.215C175.379 107.434 175.228 107.625 175.035 107.767C174.843 107.908 174.617 107.997 174.379 108.023L174.298 108.034L174.302 107.96C174.218 108.21 174.002 108.26 173.805 108.338C172.069 108.968 170.184 109.064 168.393 108.613L159.645 107.235C157.797 106.972 155.993 106.457 154.285 105.703C153.701 105.49 153.089 105.364 152.468 105.327C151.412 104.956 150.406 104.456 149.471 103.84C147.954 103.314 146.462 102.786 144.974 102.288C144.414 102.1 143.822 101.965 143.249 101.807C141.985 101.167 140.074 101.714 138.875 101.025C138.748 100.952 138.563 100.948 138.604 100.714C138.124 99.478 139.684 96.9135 141.44 96.047C142.2 95.636 143.035 95.3836 143.896 95.3052C145.483 94.8401 146.605 95.3307 147.844 95.599C148.582 95.7985 149.307 96.0426 150.015 96.3299C150.465 96.8338 151.474 96.6542 151.789 97.336C153.012 97.6785 154.192 98.1598 155.305 98.7705C156.503 98.8871 157.722 98.9916 158.314 99.9693L161.661 100.713C164.235 100.974 166.86 101.24 169.534 101.511C169.988 101.896 170.794 101.464 171.405 101.495C173.056 101.309 174.724 101.122 176.41 100.932C176.661 100.639 176.879 100.717 177.104 100.721L177.08 100.74C178.473 100.32 179.878 99.8971 181.294 99.471C181.618 99.5568 182.181 99.3126 182.235 99.7726ZM192.771 83.2327C192.216 83.4873 191.638 83.6892 191.045 83.8359C189.773 84.3723 188.579 85.0759 187.494 85.928C184.685 87.7962 181.381 88.7819 178.008 88.7588C175.476 88.6202 172.985 88.0668 170.633 87.1208C171.978 88.1491 173.209 89.3172 174.307 90.6055L174.632 89.1972L182.134 89.149C182.793 91.412 183.006 93.7817 182.76 96.1259C182.74 96.761 182.547 97.3785 182.201 97.9114C181.362 98.8745 180.219 99.5211 178.961 99.7432C173.261 101.224 167.281 101.258 161.564 99.8423C156.781 98.6872 152.684 96.8052 148.503 95.3277C147.197 94.7788 145.784 94.5318 144.369 94.6049C142.551 94.8148 140.862 95.6496 139.591 96.9667C138.198 98.404 137.459 100.553 138.277 101.462C138.801 102.043 139.792 102.042 140.704 102.098C146.589 102.462 150.895 105.964 156.786 107.371C160.206 108.187 164.152 108.296 167.623 109.374C163.06 111.792 158.008 113.142 152.847 113.322C148.82 113.375 144.806 112.861 140.923 111.794C135.455 110.432 130.429 108.701 126.563 105.81C125.864 105.393 125.265 104.829 124.807 104.156C124.35 103.483 124.046 102.717 123.917 101.914C123.751 100.046 124.724 97.2614 125.645 95.0783C127.836 89.8864 131.643 84.6961 135.683 79.9656C138.273 76.933 141.484 73.6532 144.621 72.7692L142.06 77.6785C145.296 72.4682 149.312 67.7855 153.969 63.7936C158.879 59.7242 164.846 56.762 169.397 56.9284C174.108 57.1006 176.714 61.1313 174.464 66.611C173.558 66.5127 172.725 66.0706 172.136 65.376C169.197 62.926 163.921 63.0609 158.625 65.5989C157.607 66.0173 156.722 66.7043 156.065 67.5866C162.474 63.491 169.589 63.0685 172.448 66.8393C172.504 66.947 172.582 67.0419 172.676 67.118C172.771 67.194 172.88 67.2495 172.997 67.2808C173.114 67.3121 173.237 67.3187 173.357 67.3C173.476 67.2813 173.591 67.2378 173.693 67.1723C173.508 67.0595 173.141 67.5771 173.252 67.7586C173.363 67.9401 173.659 67.9701 173.695 68.2033C173.785 68.7846 172.532 69.3119 171.888 69.279C169.1 69.1367 166.304 68.9268 163.144 70.0484C161.544 70.6164 159.922 71.5031 158.33 72.2521C156.528 73.1098 154.656 73.8123 152.735 74.3521C155.468 74.6907 159.333 72.1141 162.841 70.772C167.139 69.0961 171.924 69.1843 176.156 71.0172C176.423 71.1256 176.706 71.2733 176.659 71.6101C176.558 71.881 176.391 72.1223 176.173 72.3123C175.955 72.5022 175.694 72.6347 175.411 72.6979C174.99 72.7665 174.558 72.6823 174.193 72.4602C170.828 70.8567 166.974 70.6175 163.437 71.7929C159.948 72.8848 156.168 75.2589 153.193 75.3081C152.495 75.2352 151.79 75.3126 151.124 75.5349C150.368 75.8527 149.481 76.8267 149.636 77.3887C149.756 77.8251 150.381 77.754 150.879 77.7765C152.387 77.8448 153.095 79.0494 153.942 80.0157C157.081 83.5982 163.519 84.2857 170.721 81.5948C171.138 81.4392 171.627 81.2775 171.829 81.4948C172.21 81.9065 171.151 82.8679 170.361 83.2366C168.141 84.2474 165.725 84.756 163.286 84.726C158.481 84.7618 154.474 83.4816 151.686 81.0943C153.436 85.0224 159.144 85.1873 164.611 85.1132C165.95 85.155 167.287 84.9898 168.576 84.6232C170.16 84.1237 171.559 83.1604 172.591 81.8577C176.188 84.3788 182.421 83.7654 188.554 83.0651L193.475 82.5032C193.342 82.827 193.09 83.0879 192.771 83.2327ZM193.636 81.6872C193.139 81.8158 192.645 81.9053 192.164 81.9889C188.426 82.7403 184.62 83.1052 180.807 83.0778C178.363 83.0149 175.952 82.5084 173.689 81.5828C173.032 81.3015 172.716 80.888 173.352 79.9622C174.001 79.0538 174.792 78.2555 175.693 77.5978C176.838 76.7685 178.081 76.0856 179.395 75.565C182.564 74.1916 186.024 73.6227 189.466 73.9086C192.313 74.1635 194.994 75.3609 197.084 77.3113C197.374 77.5366 197.57 77.8615 197.635 78.2233C197.721 79.0997 196.664 80.2962 195.535 80.9389C194.938 81.2718 194.299 81.5237 193.636 81.6872Z" fill="#F9B500"/>
<path d="M158.266 73.8083L158.268 73.8093L158.27 73.8073L158.266 73.8083Z" fill="#0F1B0D"/>
<path d="M155.296 81.4746C155.297 81.47 155.295 81.4683 155.295 81.4639L155.287 81.4623L155.296 81.4746Z" fill="#0F1B0D"/>
<path d="M150.077 100.594C150.077 100.588 150.074 100.587 150.074 100.581L150.067 100.58L150.077 100.594Z" fill="#0F1B0D"/>
<path d="M143.32 94.73L143.329 94.7291L143.344 94.7168L143.32 94.73Z" fill="#0F1B0D"/>
<path d="M158.468 66.3543H158.459L158.454 66.3613L158.468 66.3543Z" fill="#0F1B0D"/>
<path d="M176.418 100.931H176.411L176.402 100.94L176.418 100.931Z" fill="#0F1B0D"/>
<path d="M142.657 98.0165L142.253 98.1784L142.69 98.3738C142.721 98.3574 142.755 98.3495 142.79 98.3509C142.825 98.3522 142.859 98.3628 142.889 98.3815L143.311 98.4229L145.789 98.7428L146.428 98.7974L146.986 98.6148C145.618 98.0477 144.128 97.8416 142.657 98.0165Z" fill="#F9B500"/>
<path d="M135.49 100.026C133.875 102.406 134.816 104.814 137.247 104.42C135.466 103.872 135.149 102.233 135.49 100.026Z" fill="#F9B500"/>
<path d="M156.601 75.683C156.011 76.201 155.169 76.117 154.765 77.0645C156.958 75.9232 159.219 74.9192 161.536 74.0583C161.614 73.9151 161.692 73.772 161.769 73.629L159.807 74.2803C158.731 74.7509 157.663 75.2184 156.601 75.683Z" fill="#F9B500"/>
<path d="M153.834 77.5919C154.166 77.7204 154.449 77.3375 154.744 77.0778C154.407 76.9032 154.089 76.9106 153.834 77.5919Z" fill="#0F1B0D"/>
<path d="M164.007 72.9149C163.512 72.9695 163.032 73.1229 162.596 73.3658C162.933 73.8352 163.348 73.9407 164.007 72.9149Z" fill="#F9B500"/>
<path d="M182.583 100.18C182.474 100.047 182.364 99.9142 182.253 99.7818L182.236 99.7718C182.182 99.3118 181.618 99.5562 181.295 99.4704L177.084 100.739C177.091 100.731 177.098 100.729 177.105 100.72C176.88 100.716 176.662 100.638 176.411 100.931C174.725 101.121 173.056 101.309 171.406 101.494C170.795 101.463 169.989 101.895 169.535 101.51C166.861 101.239 164.236 100.973 161.662 100.712L158.316 99.9684C157.723 98.9907 156.505 98.8864 155.307 98.7698C154.193 98.1589 153.013 97.6778 151.79 97.3356C151.476 96.6538 150.467 96.833 150.017 96.3291C149.308 96.0418 148.583 95.7977 147.845 95.5983C146.607 95.33 145.485 94.8394 143.897 95.3043C143.037 95.3829 142.202 95.6353 141.442 96.0462C139.685 96.913 138.125 99.4773 138.606 100.713C138.565 100.948 138.749 100.951 138.876 101.024C140.075 101.713 141.987 101.167 143.25 101.807C143.824 101.964 144.416 102.099 144.976 102.287C146.464 102.786 147.956 103.314 149.473 103.839C150.407 104.456 151.413 104.955 152.469 105.327C153.09 105.363 153.702 105.49 154.287 105.702C155.995 106.456 157.798 106.972 159.647 107.234L168.394 108.613C170.185 109.063 172.07 108.968 173.806 108.338L174.304 107.959L174.3 108.033L174.381 108.022C174.618 107.996 174.845 107.908 175.037 107.766C175.229 107.624 175.381 107.433 175.475 107.214C175.823 106.679 176.136 106.123 176.412 105.548C176.594 105.096 176.644 104.612 175.918 104.738C173.814 105.092 171.672 105.157 169.55 104.932C166.184 104.414 162.899 103.909 159.693 103.416C157.047 103.341 155.259 101.953 152.78 101.764C152.272 100.822 151.106 100.785 150.075 100.58C150.077 100.258 149.78 100.295 149.545 100.257C148.973 100.208 148.286 100.214 148.085 99.7655C147.778 99.0803 146.378 99.8426 146.43 98.7971L145.791 98.7425L143.312 98.4225L142.89 98.3812C142.766 98.5012 142.695 98.5094 142.692 98.3735L142.255 98.178L142.659 98.0162C144.129 97.8414 145.62 98.0476 146.988 98.6149C147.775 98.6197 148.176 99.186 148.887 99.3136C151.382 100.323 153.926 101.206 156.509 101.959C160.639 103.109 164.873 103.845 169.149 104.157C169.383 104.147 169.615 104.11 169.84 104.047C170.514 104.11 171.19 104.173 171.87 104.237C172.906 104.389 173.962 104.346 174.982 104.108C176.899 104.195 178.792 103.654 180.374 102.568C180.921 102.401 181.414 102.093 181.802 101.673C182.19 101.254 182.46 100.738 182.583 100.18Z" fill="#FFDE56"/>
<path d="M184.543 82.5093C183.339 82.6703 182.122 82.7109 180.91 82.6309C178.981 82.2357 178.639 81.0681 179.817 78.9543C181.331 76.2371 183.937 74.3429 186.384 74.1777C187.147 74.195 187.904 74.3072 188.639 74.512C189.03 74.8175 189.336 75.2188 189.527 75.6769C189.718 76.135 189.787 76.6345 189.728 77.1273C189.398 79.4354 187.472 81.4412 184.543 82.5093ZM186.004 78.351C186.309 78.3387 186.606 78.2487 186.866 78.0896C187.127 77.9305 187.343 77.7075 187.493 77.4418C187.766 76.8988 187.453 76.6592 186.936 76.6766C186.675 76.6352 186.407 76.6776 186.171 76.7977C185.935 76.9178 185.743 77.1095 185.622 77.3453C185.282 77.9784 185.56 78.2237 186.004 78.351ZM184.29 76.5867C184.504 76.5562 184.708 76.4799 184.889 76.3629C185.071 76.246 185.224 76.0912 185.34 75.9092C185.525 75.5656 185.406 75.3156 185.069 75.2892C184.855 75.2852 184.644 75.3428 184.461 75.4551C184.278 75.5674 184.131 75.7297 184.038 75.9229C183.815 76.312 184.093 76.429 184.29 76.5867Z" fill="#FFDE56"/>
<path d="M186.004 78.351C185.56 78.2237 185.282 77.9785 185.622 77.3454C185.743 77.1096 185.935 76.9179 186.171 76.7978C186.407 76.6777 186.675 76.6353 186.936 76.6767C187.453 76.6593 187.766 76.8988 187.493 77.4418C187.343 77.7076 187.127 77.9306 186.866 78.0896C186.606 78.2487 186.309 78.3388 186.004 78.351Z" fill="#FFDE56"/>
<path d="M184.29 76.5866C184.093 76.4289 183.815 76.3118 184.038 75.9229C184.131 75.7298 184.278 75.5676 184.46 75.4553C184.643 75.343 184.854 75.2854 185.069 75.2894C185.405 75.3156 185.524 75.5656 185.34 75.9094C185.224 76.0913 185.07 76.246 184.889 76.3629C184.708 76.4798 184.503 76.5561 184.29 76.5866Z" fill="#FFDE56"/>
<path d="M199.804 81.1063H199.828L201.333 78.3323L139.508 76.6833L138.513 78.5883L135.214 78.4743L134.174 80.4703L137.596 80.6173L138.486 78.9133L148.591 79.2743L147.606 81.1463L149.563 81.2313L148.524 83.2033L149.924 83.2753L148.645 85.7023L150.545 85.8173L149.598 87.6123L163.275 88.5393L164.28 86.6503L166.187 86.7663L167.567 84.1753L168.966 84.2463L170.101 82.1183L170.608 82.1403L171.695 80.1003L173.737 80.1733L172.604 82.2963L175.013 82.4013L173.968 84.3543L176.143 84.4643L174.855 86.8703L177.617 87.0333L176.783 88.5883L187.629 89.2903L188.499 87.6773L191.023 87.8263L192.396 85.2853L194.891 85.4113L196.026 83.3133L198.548 83.4233L199.804 81.1063Z" fill="#F9B500"/>
<path d="M153.299 81.5743L151.478 81.4753L152.619 79.3403L154.45 79.4243L153.299 81.5743Z" fill="#E9FFFF"/>
<path d="M153.984 83.7133L152.147 83.5993L153.296 81.4523L155.143 81.5523L153.984 83.7133Z" fill="#E9FFFF"/>
<path d="M179.774 82.7353L177.568 82.6173L178.844 80.2693L181.062 80.3693L179.774 82.7353Z" fill="#E9FFFF"/>
<path d="M180.706 85.0993L178.478 84.9623L179.764 82.6013L182.004 82.7193L180.706 85.0993Z" fill="#E9FFFF"/>
</g>
<path d="M187.308 22.9084H119.357V32.8717H187.308V22.9084Z" fill="white"/>
<path d="M61.6233 61.6149H26.4613V71.5783H61.6233V61.6149Z" fill="white"/>
<path d="M103.518 61.6149H68.3564V71.5783H103.518V61.6149Z" fill="white"/>
<path d="M145.413 61.6149H110.251V71.5783H145.413V61.6149Z" fill="white"/>
<path d="M187.309 61.6149H152.147V71.5783H187.309V61.6149Z" fill="white"/>
<path d="M51.3569 80.0425H28.9467C28.004 80.0425 27.1 80.417 26.4333 81.0836C25.7667 81.7502 25.3921 82.6544 25.3921 83.5972V106.007C25.3921 106.474 25.4839 106.936 25.6626 107.367C25.8412 107.799 26.1032 108.191 26.4333 108.521C26.7634 108.851 27.1551 109.113 27.5864 109.291C28.0177 109.47 28.4799 109.562 28.9467 109.562H51.3569C52.2996 109.562 53.2037 109.187 53.8703 108.521C54.5369 107.854 54.9113 106.95 54.9113 106.007V83.5972C54.9113 82.6544 54.5369 81.7502 53.8703 81.0836C53.2037 80.417 52.2996 80.0425 51.3569 80.0425Z" fill="#E1A122"/>
<path d="M49.702 82.2226H30.602C28.9288 82.2226 27.5724 83.579 27.5724 85.2522V104.352C27.5724 106.025 28.9288 107.382 30.602 107.382H49.702C51.3752 107.382 52.7316 106.025 52.7316 104.352V85.2522C52.7316 83.579 51.3752 82.2226 49.702 82.2226Z" fill="#FFBB28"/>
<path d="M52.7316 89.7967H27.5724V90.5212H52.7316V89.7967Z" fill="#E1A122"/>
<path d="M52.7316 99.0832H27.5724V99.8077H52.7316V99.0832Z" fill="#E1A122"/>
<path d="M45.1576 99.8078V89.7968H44.4331V99.8078H45.1576Z" fill="#E1A122"/>
<path d="M35.871 99.8077V89.7968H35.1466V99.8077H35.871Z" fill="#E1A122"/>
<path d="M40.5142 90.0353V82.2226H39.7897V90.0353H40.5142Z" fill="#E1A122"/>
<path d="M40.5142 107.382V99.569H39.7897V107.382H40.5142Z" fill="#E1A122"/>
</svg>
