<svg width="77" height="61" viewBox="0 0 77 61" fill="none" xmlns="http://www.w3.org/2000/svg">
<g clip-path="url(#clip0_136_2843)">
<path d="M76.9788 24.3539C76.9564 23.878 76.959 23.4013 76.9865 22.9257C77.0286 22.61 77.0036 22.2891 76.9132 21.9835C76.8228 21.6779 76.669 21.3944 76.4617 21.1512C76.2233 20.9229 75.9393 20.7466 75.628 20.6335C75.3168 20.5204 74.9851 20.4731 74.6543 20.4947H74.603C74.351 20.4966 74.099 20.4985 73.847 20.5002C73.8396 20.406 73.8258 20.3125 73.806 20.2201C73.7067 19.8584 73.5325 19.5212 73.2946 19.2298C73.0566 18.9385 72.7601 18.6995 72.4239 18.5279C72.3495 17.8263 72.0795 17.1591 71.6441 16.601C71.2088 16.0429 70.6253 15.616 69.959 15.368C69.8569 14.9804 69.6763 14.6175 69.428 14.3014C69.1798 13.9853 68.8691 13.7226 68.5151 13.5294L68.4404 13.4813C66.8823 12.4195 65.1731 11.5941 63.3692 11.0324C63.2796 11.0073 63.1923 10.9751 63.1079 10.936H63.1075C63.0593 10.8342 63.0266 10.726 63.0103 10.6148C61.806 4.68517 57.802 1.28399 52.0246 1.28399C51.67 1.28399 51.3034 1.29699 50.936 1.32201C47.8533 1.55549 44.854 2.42559 42.1307 3.87639C41.9095 4.00859 41.6688 4.10563 41.4173 4.16398C41.2841 4.07735 41.1703 3.96456 41.0829 3.83259C40.6144 3.28892 40.0487 2.83576 39.414 2.49594L39.1409 2.32833C36.7207 0.868939 33.9324 0.120141 31.0999 0.168928C26.9447 0.183045 22.9094 1.55 19.6147 4.05949C15.9606 6.89615 13.3231 10.8624 11.5522 16.185C11.5391 16.225 11.527 16.265 11.5153 16.305C10.3303 16.6043 9.21948 17.1404 8.25098 17.8804C7.28247 18.6204 6.4767 19.5487 5.88308 20.6083C5.35714 21.5028 4.87646 22.3904 4.4215 23.2744C3.81506 23.2685 3.23095 23.5009 2.79706 23.9209C2.15656 24.5799 2.1811 25.3636 2.21488 26.4912C2.21906 26.855 2.31192 27.2124 2.48554 27.5329C-0.0147621 33.9132 -0.622787 40.069 0.635762 46.1905C1.6777 51.2564 4.49545 54.5265 9.0107 55.9095C9.5093 56.0621 10.0026 56.237 10.5245 56.422C11.2457 56.6773 11.9912 56.9417 12.7703 57.1498C19.0701 58.8347 26.0556 59.763 34.7536 60.0708C36.1989 60.1217 37.7512 60.169 39.3131 60.169C44.0592 60.169 47.6608 59.7114 50.9922 58.6844C54.2279 57.6873 58.3237 56.1536 61.6833 53.0698C63.3541 53.109 64.9993 52.6575 66.4118 51.7721C68.9982 50.0987 68.7163 48.1199 68.3183 47.0906C68.312 47.0732 68.3057 47.0568 68.3003 47.0419C68.363 46.9976 68.4539 46.9383 68.5861 46.8598C70.1048 45.9579 71.7678 44.5713 71.1409 41.8329C71.1362 41.8132 71.1312 41.7929 71.1258 41.7737C71.0204 41.384 70.833 41.0208 70.5758 40.7081C70.3187 40.3953 69.9976 40.1401 69.6338 39.9591C69.3593 36.7419 67.6783 34.4116 65.8641 32.6525C65.9506 32.6044 66.0325 32.552 66.1169 32.502L69.0371 32.4829C70.3779 32.4732 71.2643 32.4665 71.9495 31.7363C72.3253 31.3242 72.5331 30.7885 72.5328 30.2331C73.1405 30.2252 73.722 29.9866 74.1575 29.5665C74.5543 29.1341 74.7705 28.5684 74.7623 27.984C74.8168 27.9871 74.8722 27.9952 74.9263 27.9952C75.478 28.0035 76.0123 27.8038 76.421 27.4365L76.4356 27.4235C76.45 27.4103 76.4665 27.3968 76.48 27.3838C76.5121 27.3529 76.5391 27.3185 76.5679 27.2853C76.5842 27.2666 76.602 27.2494 76.6174 27.2298C76.6678 27.166 76.7129 27.0981 76.7521 27.0269C76.7583 27.0155 76.7625 27.0029 76.7684 26.9912C76.8001 26.93 76.8273 26.8666 76.85 26.8016C76.8586 26.7766 76.8648 26.7507 76.8721 26.7252C76.8883 26.669 76.9011 26.6118 76.9105 26.5541C76.9129 26.5392 76.9184 26.5255 76.9203 26.5104C76.9246 26.4773 76.9258 26.4454 76.9297 26.4124V26.4101C76.9963 25.7268 77.0128 25.0396 76.9788 24.3539Z" fill="#F8F8F7"/>
<path d="M48.1381 16.3389L48.142 16.3473L48.1481 16.3493L48.1381 16.3389Z" fill="#68974C"/>
<path d="M70.8658 19.8833C70.1299 19.5849 69.582 18.8442 68.6701 18.961C68.2389 18.6139 67.7414 18.3567 67.2075 18.2048C66.6735 18.0529 66.1141 18.0095 65.5628 18.0772C65.5092 17.9627 65.4709 17.7595 65.3987 17.7471C62.9939 17.3299 60.59 16.8476 58.1347 17.3653C57.0313 17.7237 55.8042 17.3919 54.7384 17.962C53.7313 17.9556 52.8099 18.3445 51.8525 18.5407C50.8726 18.7414 50.0327 19.5893 48.9309 19.2097C48.9134 18.5719 49.4924 18.613 49.8514 18.4818C50.9377 18.0849 52.0485 17.7544 53.1501 17.3979C54.0534 17.2797 54.9566 17.1597 55.8603 17.0433C60.3094 16.4703 64.6989 16.4635 68.9077 18.3296C69.2555 18.4838 69.7797 18.9775 70.0433 18.4344C70.2866 17.9332 69.5584 17.7458 69.2754 17.4082C69.2305 17.3547 69.104 17.3772 69.0313 17.3364C66.9548 16.1717 64.6295 15.9817 62.3395 15.6519C61.2975 15.6366 60.2556 15.6213 59.2136 15.6059C58.0801 15.5117 57.0246 15.9822 55.9005 16.0763C54.634 16.1823 53.3722 16.7167 52.0724 16.9203C50.8056 17.3018 49.5817 17.8116 48.4201 18.4415C47.2943 18.9739 45.9077 17.5225 44.471 17.6775C44.3889 17.6549 44.3042 17.6428 44.219 17.6414C43.3249 17.1745 42.3048 16.9992 41.3042 17.1406C40.6755 16.9269 40.0609 17.1627 39.4405 17.1984C38.019 16.9589 36.5638 17.0014 35.1589 17.3232C33.7541 17.645 32.4277 18.2399 31.2564 19.0732L30.7758 19.2197C30.2822 20.0034 29.2403 19.8465 28.6358 20.4401C26.5515 20.7528 24.6441 21.8012 22.4996 21.8834C22.243 21.8933 21.8304 22.0259 21.9219 22.4287C21.9605 22.6019 22.0591 22.7561 22.2007 22.8645C22.3422 22.973 22.5177 23.0287 22.6965 23.0221C24.0357 22.7442 25.3108 23.2245 26.6185 23.2479L26.6203 23.1964C26.4891 22.4971 26.8651 22.4778 27.3776 22.6418L27.394 22.6274C27.2711 21.6557 28.323 21.7123 28.6919 21.1709C29.6472 20.6708 30.6026 20.1707 31.5583 19.6705L33.4128 18.9728C33.5172 18.876 33.6403 18.8012 33.7747 18.753C33.9092 18.7048 34.0521 18.6842 34.1948 18.6925C34.5882 18.4254 35.0434 18.2614 35.518 18.2157L36.1811 18.0954C36.3084 17.776 36.5448 17.5606 36.8832 17.696C37.7296 18.0344 38.5977 17.8082 39.4544 17.856C42.0521 17.7838 44.4907 18.5661 46.9514 19.2291C48.0344 20.0339 49.8529 19.8338 50.2328 21.6212C50.296 21.9191 50.5936 21.7215 50.7456 21.5901C51.0379 21.3375 51.3087 21.0608 51.5885 20.7941C51.5851 20.7944 51.582 20.7935 51.5787 20.7938C51.6677 20.7049 51.7566 20.6159 51.8456 20.5268L51.8445 20.5567C51.9496 20.5693 52.0561 20.5495 52.1495 20.5001C52.243 20.4506 52.3188 20.374 52.3668 20.2804L52.3657 20.2834C53.1051 20.0174 53.8065 19.657 54.452 19.2113C55.1534 19.0103 55.8549 18.8093 56.5565 18.6084C56.8226 18.5326 57.0885 18.4567 57.3544 18.3809C59.9816 17.7433 62.601 17.9882 65.2186 18.4471C66.2813 18.9068 67.3885 19.258 68.5231 19.4952C69.0936 20.0651 69.8679 20.2496 70.5842 20.5312C70.686 20.5524 70.7916 20.5478 70.8911 20.5179C70.9907 20.488 71.081 20.4337 71.1538 20.3601C71.304 20.1347 71.0579 19.9613 70.8658 19.8833Z" fill="#68974C"/>
<path d="M30.7729 19.2206L30.7755 19.2198C30.778 19.2159 30.7812 19.2134 30.7837 19.2094L30.7729 19.2206Z" fill="#68974C"/>
<path d="M48.6732 16.3285C48.7444 16.5425 48.8943 16.7221 49.0931 16.8315C49.2918 16.9409 49.5249 16.9721 49.7458 16.9188C50.7017 16.8255 51.4664 16.2979 52.3524 16.0839C53.0884 16.071 53.8127 15.8987 54.4745 15.579L54.4868 15.6134C55.4769 15.6101 56.4575 15.4202 57.376 15.0537L61.0421 15.0167C61.5658 15.0342 62.0894 15.0517 62.6128 15.0692L62.5975 15.0531C63.264 15.4434 64.0055 15.2739 64.7166 15.3317L64.7015 15.3178C65.0605 15.727 65.6046 15.478 66.0213 15.6819C66.118 15.7157 66.2147 15.7492 66.3115 15.7823C66.8434 15.8198 67.3211 16.3018 68.0987 15.897C67.6384 15.5277 67.2371 15.2059 66.8358 14.8839L64.7182 13.7567C63.3604 13.3104 62.0025 12.864 60.6445 12.4176C59.7938 12.0542 58.8762 11.8687 57.9499 11.8729C54.1585 11.2667 50.2875 11.3474 46.5251 12.1109C46.3897 12.2322 46.2297 12.3234 46.0559 12.3786C45.8821 12.4338 45.6985 12.4516 45.5172 12.431C45.4313 12.2691 45.348 12.0781 45.2185 12.4051L45.2419 12.409C44.9154 12.351 44.5805 12.3588 44.2571 12.4318C43.9337 12.5049 43.6285 12.6418 43.3597 12.8343L44.4521 13.7413C44.935 14.2919 45.5231 14.7424 46.1825 15.0666C46.6886 15.7112 47.9535 15.2136 48.1433 16.3344C48.3159 16.1247 48.4956 16.2747 48.6732 16.3285Z" fill="#68974C"/>
<path d="M48.1381 16.3391L48.149 16.3504C48.1481 16.344 48.145 16.3407 48.144 16.3344C48.1419 16.3368 48.14 16.3366 48.1381 16.3391Z" fill="#68974C"/>
<path d="M30.7727 19.2206L30.7839 19.2094C30.7702 19.1988 30.7566 19.1968 30.743 19.188C30.7561 19.1987 30.7561 19.2101 30.7727 19.2206Z" fill="#68974C"/>
<path d="M30.7445 18.6809L30.7733 18.6824C32.5732 17.6108 34.405 16.6238 36.5781 16.5492C38.1363 16.3241 39.7152 16.2755 41.2844 16.4045C43.1757 16.8098 45.1171 16.9976 46.9436 17.6823C47.3898 17.8495 47.8345 18.0971 48.2528 17.6322C48.6731 17.1651 48.3119 16.764 48.1422 16.3472C47.3874 16.0642 46.5994 15.8773 45.7972 15.7909C45.0727 15.7591 44.3657 15.336 43.6507 15.086C41.3076 14.7558 38.9292 14.7558 36.5861 15.086C35.9449 14.8446 35.5964 15.493 35.0284 15.5855C33.7243 15.7986 32.3316 15.8268 31.2405 16.7519C30.7 17.2397 30.1066 17.6665 29.4711 18.0246C28.8579 18.4353 27.923 18.4015 27.6117 19.2469C26.5064 18.9947 25.6315 19.5403 24.7488 20.0588C24.3399 19.8112 23.8769 20.6286 23.5295 20.0339C23.348 19.7232 23.6238 19.5061 23.946 19.4188C24.7622 19.267 25.6098 19.2182 26.317 18.7085L26.3119 18.7216C26.5608 18.7379 26.81 18.6975 27.0406 18.6035C27.2712 18.5095 27.477 18.3643 27.6422 18.1792C29.3241 17.4972 30.6816 16.2818 32.2555 15.4224L32.2546 15.4221C34.0888 14.8893 35.9776 14.563 37.8855 14.4495C39.3727 14.4527 40.8598 14.4561 42.347 14.4595C42.7289 14.4207 43.251 14.7721 43.4181 14.1236C43.5505 13.6095 43.2671 13.3439 42.7946 13.1758C42.6136 13.1114 42.4864 12.8979 42.3349 12.7522L41.8276 12.6855C41.7016 12.4399 41.522 12.2252 41.3017 12.0572C41.0814 11.8892 40.826 11.772 40.5543 11.7142C39.12 11.1925 37.9229 10.1753 36.4091 9.79988C35.7912 9.59883 35.1242 9.60141 34.5078 9.80723H34.5071C33.3218 8.82292 32.0203 9.35397 30.7466 9.52353C29.7502 9.99145 28.6514 10.094 27.6068 10.3903C26.7264 10.4461 25.8902 10.792 25.2309 11.373L25.2388 11.3649C25.0791 11.3857 24.9316 11.4185 24.9666 11.6313C24.8478 11.6013 24.7223 11.6107 24.6093 11.658C24.4964 11.7052 24.4021 11.7878 24.3408 11.8931C23.831 12.1996 23.3212 12.5061 22.7768 12.8333C22.8899 11.9229 23.7811 11.0298 24.9569 10.6369C26.6364 10.0756 28.3236 9.53578 30.0073 8.98679C31.5739 8.87546 33.1404 8.65841 34.7066 8.98887C36.9224 9.31044 39.057 10.0434 40.9986 11.1494C41.242 11.4706 41.5738 11.7157 41.9538 11.8553C42.3339 11.9949 42.7464 12.0232 43.1422 11.9368C43.648 11.5513 43.2094 11.2091 43.0916 10.8522C43.0272 10.744 42.9629 10.6358 42.8985 10.5274C42.9091 10.4973 42.9121 10.4651 42.9073 10.4335C42.9024 10.402 42.8898 10.3721 42.8705 10.3466C42.8654 9.86277 42.6888 9.39618 42.3716 9.02842C42.3774 9.0305 42.3796 9.03424 42.3854 9.03623C42.3903 8.9303 42.3672 8.82494 42.3186 8.73052C42.2699 8.6361 42.1972 8.55588 42.1077 8.49778L42.1207 8.5074C42.0838 8.3594 42.0656 8.19183 41.839 8.24058L41.87 8.22453C41.8587 8.01602 41.8039 7.81209 41.7091 7.62564C41.6142 7.43918 41.4814 7.27424 41.319 7.14124C39.9771 5.84807 38.8402 4.31459 37.041 3.55783C36.8853 3.3803 36.6916 3.23932 36.4742 3.1451C36.2567 3.05088 36.0208 3.00579 35.7835 3.01309L35.7922 3.02964C34.9017 2.53591 33.8948 2.28548 32.8746 2.30397C31.4786 2.16007 30.0713 2.16139 28.6756 2.3079C28.5748 2.2762 28.4664 2.2782 28.3669 2.31359C28.2674 2.34899 28.1824 2.41581 28.125 2.50377C28.1291 2.49832 28.1338 2.49526 28.138 2.4899C27.3958 2.48021 26.6645 2.66701 26.0195 3.03103L26.0189 3.01036C25.8229 3.07511 25.6271 3.14011 25.4314 3.20536C24.8305 4.02959 23.737 3.71494 22.9816 4.28596C21.1717 5.65415 19.3629 6.96877 17.851 8.71715C16.1394 10.7844 14.8311 13.1495 13.9929 15.6914C13.678 16.5691 12.9679 17.4054 13.1885 18.4572C12.9282 18.8282 12.8133 19.2805 12.8651 19.7295L12.8723 19.7267C12.3052 20.7958 12.2962 21.9542 12.3209 23.118L12.3376 23.1088C12.1678 23.2761 11.9689 23.6034 11.8336 23.5795C11.4865 23.518 11.6326 23.1725 11.6606 22.9396C11.7779 21.9648 11.9141 20.9925 12.0433 20.0188C12.1747 18.6149 11.9493 18.2235 11.2621 18.6398C10.2536 19.2506 9.08727 19.6772 8.42368 20.7508C8.23875 20.7465 8.16969 20.8675 8.12377 21.0144V21.0112C7.07559 22.1351 6.29726 23.4792 5.84694 24.9432C4.81471 27.0769 3.99274 29.3045 3.39246 31.5948C2.93312 32.6256 2.65893 33.7279 2.58225 34.8522L2.60251 34.8438C2.23518 35.2218 2.344 35.6962 2.33149 36.1455C2.1748 36.1839 2.14512 36.2935 2.16933 36.4335C1.98165 38.5109 1.97742 40.6006 2.15669 42.6788C2.18345 43.8905 2.4244 45.0882 2.86858 46.2174L2.83423 46.3046C2.82566 46.6732 2.89358 47.0395 3.0338 47.3809C3.17402 47.7224 3.38353 48.0316 3.64934 48.2894C3.68117 48.4248 3.71286 48.5597 3.74444 48.6943C3.81203 49.3271 4.03108 49.9349 4.38339 50.4669C4.7357 50.9989 5.21109 51.4399 5.77 51.7532C6.00954 51.9524 6.24922 52.1517 6.48907 52.351C6.59611 52.4356 6.70315 52.5203 6.81016 52.6051H6.80652C6.86269 52.6944 6.94192 52.7672 7.036 52.8159C7.13008 52.8646 7.23559 52.8875 7.3416 52.8822C8.02167 53.4819 8.89175 53.6982 9.70523 54.028C10.6908 54.4918 11.7314 54.8306 12.8025 55.0362C14.5497 55.5653 16.2761 56.1876 18.1373 56.2064C18.6681 56.3053 19.1558 56.6169 19.7259 56.5205C24.3262 57.4304 28.9989 57.9331 33.689 58.0226C36.8379 58.0996 39.9866 58.2043 43.1352 58.0226C44.3801 58.0228 45.6194 57.8565 46.8194 57.5282C47.3107 57.6503 47.7022 57.2957 48.1591 57.2529C48.4393 57.282 48.7225 57.2558 48.9924 57.1758C49.2623 57.0958 49.5136 56.9636 49.7316 56.7867L49.7291 56.789C50.4206 56.8257 51.1057 56.6415 51.6838 56.2635C52.6188 56.1448 53.2936 55.4122 54.1969 55.2203C54.6195 55.1853 55.0704 55.2064 55.2602 54.7029C55.5691 54.7094 55.875 54.6416 56.1517 54.5052C56.4285 54.3689 56.6677 54.1681 56.849 53.92L56.8693 53.9496C56.9803 53.955 57.0908 53.9314 57.1897 53.8811C57.2886 53.8308 57.3724 53.7556 57.4327 53.6631C57.7754 53.6692 57.9653 53.4311 58.167 53.2121C58.7736 52.8402 59.5261 52.6275 59.7263 51.8113C58.8849 51.3323 57.9819 51.6734 57.1085 51.6191L52.8568 51.5905L48.177 51.5959L47.8986 51.5418C46.0927 51.0435 44.2141 51.0816 42.3771 50.812L41.5365 50.8132L40.7906 50.7987C40.7553 50.7739 40.7147 50.7574 40.672 50.7505C40.6292 50.7435 40.5855 50.7463 40.544 50.7587C40.4717 50.5556 40.4095 50.3335 40.155 50.2907C37.0394 49.7663 33.974 48.943 30.8037 48.7434C30.4634 48.8885 30.0969 48.9639 29.7264 48.9649C29.3559 48.966 28.989 48.8926 28.6479 48.7493C28.2087 48.5258 27.722 48.4096 27.2283 48.4105C26.7346 48.4113 26.2483 48.5292 25.81 48.7543C24.9762 49.161 22.4031 48.2624 21.9223 47.5086C20.8871 45.8858 22.0517 42.339 23.6976 41.7992C23.9042 41.6669 24.1108 41.5346 24.3173 41.4023L24.4028 41.4175L24.4744 41.3691C24.6763 41.3541 24.8865 41.3574 24.9975 41.1435C26.0504 40.9052 27.1293 40.7995 28.2088 40.829C29.3198 40.9037 30.4312 40.9734 31.5422 41.0454C32.3579 41.1692 33.2352 41.0483 33.9346 41.6354C36.5427 42.1188 39.1408 42.6677 41.7617 43.0685C44.7657 43.5279 47.7532 44.1529 50.8115 44.1958L56.2626 44.1967C57.7015 44.182 59.1328 43.9888 60.5233 43.6218L60.5242 43.6213C62.1605 43.3605 63.752 42.8741 65.2525 42.1765L65.2506 42.1803C65.4333 42.106 65.6162 42.0315 65.7987 41.9572C66.212 41.8446 66.6252 41.7318 67.0385 41.6191C67.479 40.9267 67.8816 40.2104 67.596 39.3584C67.0622 37.6767 66.1498 36.1372 64.9278 34.8562C64.8837 34.2074 64.3685 33.9049 63.9411 33.538L63.9408 33.5431C63.8533 33.4578 63.7656 33.3726 63.6776 33.2874L63.6826 33.2884C63.6504 33.0081 63.0794 32.9091 63.4147 32.5055C62.4259 32.4702 61.438 32.5984 60.4916 32.8847C59.2067 33.1272 57.9069 33.0235 56.613 33.0592C56.352 33.0662 55.9062 32.8708 55.8776 33.3055C55.8566 33.625 56.2843 33.6755 56.5548 33.7844C56.4311 34.6022 56.3736 34.6539 55.8948 34.3223C55.4373 34.0055 55.0892 33.5695 54.6361 33.2266C53.6349 32.4689 52.3542 32.5812 51.3428 31.9558C51.18 31.8552 50.8331 31.9387 50.9031 31.6178C50.9808 31.2604 51.2522 31.3357 51.5191 31.4385C51.6871 31.4877 51.8594 31.5214 52.0337 31.5392C53.2106 32.0577 54.4698 32.3687 55.7546 32.4583C57.6136 32.5379 59.473 32.6222 61.3057 32.1806C62.6373 31.9132 63.9612 31.6265 65.0267 30.7016C66.5456 30.1167 67.1488 28.6434 68.1412 27.548C68.4017 27.4436 68.6622 27.3391 68.9227 27.2346C69.3808 27.3248 69.8085 27.3456 69.9838 26.7829C70.1057 26.6691 70.3523 26.4915 70.3309 26.4508C70.0784 25.9652 69.672 26.0919 69.2471 26.2011C66.293 26.9714 63.2725 27.4656 60.2254 27.6772L59.6827 27.7433C59.6022 27.6897 59.5054 27.6656 59.4089 27.6752C59.3124 27.6847 59.2223 27.7274 59.1542 27.7957C57.2503 27.7299 55.3399 27.8754 53.4426 27.6151C52.7057 27.5871 51.9889 27.3692 51.363 26.9828C51.0837 26.8723 50.8043 26.762 50.5255 26.6517C50.37 26.582 50.2143 26.5124 50.0585 26.4431C49.4255 26.7054 49.7129 27.3955 49.4107 27.8116C49.3369 27.8913 49.263 27.971 49.189 28.0507L47.8701 29.0987C47.7671 29.0847 47.6622 29.1011 47.5686 29.1458C47.4749 29.1905 47.3966 29.2616 47.3434 29.3501C47.1304 29.3775 46.8847 29.3419 46.8081 29.6273L46.7949 29.5982C43.6787 30.2067 40.5224 30.2285 37.3649 30.2284C36.9135 30.232 36.4298 29.9953 36.0328 30.4042C34.6314 30.0899 33.2302 29.7755 31.8291 29.461C31.4683 29.6294 31.14 29.4003 30.7949 29.3778C30.7036 29.1175 30.4943 29.0775 30.2549 29.0932L30.2673 29.1076C29.8258 28.7515 29.2742 28.5568 28.705 28.5561L28.6925 28.5748C28.6382 28.4228 28.5255 28.2981 28.379 28.2278C28.2326 28.1575 28.064 28.1472 27.91 28.1993C27.8496 28.1368 27.7758 28.0886 27.6941 28.0582C27.5852 27.9767 27.476 27.8952 27.3672 27.8135C27.0125 27.5568 26.6579 27.3001 26.3032 27.0433L26.5673 26.7523C26.9158 26.9215 27.264 27.0908 27.612 27.2602C28.0891 27.4528 28.5704 27.6357 29.0423 27.8401C31.0246 28.6991 33.0062 29.5554 35.2489 29.3882L41.8294 29.3836C39.6359 29.385 37.4424 29.3865 35.2489 29.3882C37.4245 29.8964 39.6247 29.6829 41.82 29.6071C43.0749 29.7036 44.3365 29.5443 45.5269 29.139L45.5148 29.1545C45.8912 29.1339 46.3089 29.2668 46.5844 28.8715C47.0888 28.1286 48.282 28.5695 48.6931 27.6663C48.8184 27.5981 48.9285 27.5055 49.0167 27.3941C49.105 27.2827 49.1696 27.1547 49.2067 27.0179C49.2439 26.8811 49.2527 26.7383 49.2328 26.598C49.2128 26.4578 49.1645 26.3229 49.0907 26.2016C48.6741 25.6631 48.2081 26.3063 47.7779 26.4966C47.7507 26.4875 47.7217 26.4857 47.6936 26.4912C47.6655 26.4967 47.6393 26.5095 47.6177 26.5281C47.4805 26.6069 47.3432 26.6858 47.2059 26.7647L47.1079 26.7615C46.9712 26.848 46.8344 26.9346 46.6973 27.021C46.6737 27.0089 46.6464 27.0061 46.6208 27.0133C46.5953 27.0205 46.5735 27.0371 46.5599 27.0597C46.0744 27.0684 45.606 27.2383 45.2296 27.5423L45.2374 27.5284C44.0078 27.7844 42.7782 28.0403 41.5487 28.2962C39.9923 28.2973 38.4358 28.2986 36.8792 28.3C35.7244 28.1533 34.5694 28.0066 33.4142 27.8599L33.1199 27.8673C32.8372 27.6351 32.4793 27.5122 32.1123 27.5213L32.1086 27.5437C31.9185 27.2404 31.6081 27.2822 31.3168 27.2692C31.2131 27.0406 30.9983 27.0318 30.7901 27.0108C30.6812 26.7858 30.4593 26.7837 30.2534 26.7499L30.2569 26.7558C29.7368 26.488 29.2168 26.2202 28.697 25.9524L28.6941 25.9728C28.3574 25.5662 27.8904 25.2861 27.3707 25.1793C27.3723 25.1891 27.3777 25.1925 27.3796 25.2021C27.2897 25.113 27.1998 25.0237 27.1098 24.9343C27.1124 24.9343 27.1149 24.9343 27.1176 24.9343C27.0075 24.6962 26.7777 24.6982 26.5661 24.6641C25.4737 23.8204 24.4159 23.1019 22.8465 23.5555C22.6427 23.6107 22.4288 23.6182 22.2216 23.5772C22.0144 23.5362 21.8197 23.4479 21.653 23.3193C21.4863 23.1908 21.352 23.0255 21.261 22.8365C21.1699 22.6476 21.1245 22.4402 21.1284 22.2309C21.1257 21.4847 21.8237 20.9893 22.677 21.0352C23.6321 21.053 24.5855 20.9489 25.5138 20.7253L27.6493 20.0885C27.9092 19.9858 28.2386 20.0404 28.4192 19.7592C28.4179 19.7632 28.4154 19.7647 28.4141 19.7685C28.8317 19.7173 29.2663 19.6997 29.4724 19.2366C29.9014 19.4875 30.3137 18.9135 30.7432 19.1887C30.5495 19.029 30.7304 18.8507 30.7445 18.6809ZM44.2656 30.6001C44.6991 30.3409 44.7978 30.5248 44.7191 30.9396C43.2335 31.7327 41.924 32.8544 40.2474 33.2915C39.4131 33.4167 38.6024 33.6646 37.842 34.0269C37.2364 34.1686 36.633 34.3203 36.0243 34.4466C35.8092 34.4912 35.6323 35.1229 35.381 34.5379C35.2204 34.1639 35.6666 34.0861 35.8625 33.892C36.6148 33.8542 37.3501 33.6563 38.0184 33.3118C38.0249 33.3213 38.0338 33.3289 38.0442 33.334C38.0546 33.339 38.0661 33.3414 38.0777 33.3408C38.0892 33.3402 38.1004 33.3368 38.1102 33.3307C38.12 33.3246 38.1281 33.3161 38.1337 33.3061C38.3554 33.2922 38.6014 33.3292 38.6899 33.0412C39.3012 32.5477 40.0633 32.5525 40.7835 32.4191C41.1635 32.2377 41.6727 32.2602 41.8472 31.7556L41.8663 31.7847V31.7842C42.1122 31.8046 42.3593 31.7643 42.5856 31.667C42.8119 31.5696 43.0104 31.4181 43.1632 31.226L43.1772 31.2581C43.54 31.0384 43.9018 30.8177 44.2656 30.6001ZM43.1401 57.8079C40.6006 57.8052 38.0613 57.8024 35.522 57.7997L43.1401 57.8079ZM23.8893 51.4901C21.1412 52.2435 18.3425 49.9867 18.783 47.3769C19.8353 49.6312 21.3252 51.2136 23.8893 51.4901Z" fill="#68974C"/>
<path d="M42.2874 7.50956C42.7087 8.26895 43.0912 9.04882 43.4335 9.84624C43.6477 10.3453 43.5675 11.1494 43.9639 11.4669C44.4305 11.8407 45.3316 11.6612 45.8621 11.5794C50.9576 10.7972 56.1498 10.8732 61.2197 11.8042C61.1002 10.9274 60.8615 10.0707 60.5102 9.25733C60.365 8.85176 60.1944 8.45558 59.9994 8.0711C59.7111 7.55568 59.3674 7.07268 58.9743 6.63052C58.1753 5.62295 57.1669 4.79763 56.0176 4.21064C54.504 3.50869 52.7683 3.47266 51.0999 3.56488C49.5332 3.62284 47.9794 3.86838 46.4722 4.29615C45.4802 4.61901 44.5083 4.99946 43.5615 5.43554L42.2379 6.01409C42.0495 6.09646 41.8386 6.20432 41.7904 6.4026C41.7735 6.57579 41.8236 6.74889 41.9307 6.8868C42.0525 7.09283 42.1714 7.30042 42.2874 7.50956Z" fill="#68974C"/>
<path d="M65.5287 49.7359C65.4383 49.8647 65.3479 49.9935 65.2575 50.1222C65.4021 50.0308 65.5773 49.9603 65.5287 49.7359Z" fill="#68974C"/>
<path d="M13.426 16.9291C13.426 16.9291 13.0688 17.5819 11.262 18.6401C9.45526 19.6984 6.41124 20.2702 2.80349 33.3759C-0.804266 46.4817 6.17167 52.0969 6.48907 52.351C6.80647 52.6051 16.6247 56.0649 16.6247 56.0649C16.6247 56.0649 40.0585 58.1303 46.8194 57.5279C55.8135 56.7266 59.7262 51.8111 59.7262 51.8111C64.2556 51.1604 68.021 40.8963 67.7441 39.8645C67.4671 38.8328 66.5641 36.422 63.415 32.5052L62.614 31.884C64.8383 30.9946 66.7572 29.4891 68.1413 27.5475L68.559 27.3799L68.9262 27.2095C68.9262 27.2095 69.7309 27.4781 69.9839 26.7824L70.3181 26.4793L70.5841 20.5311C70.5841 20.5311 70.5386 18.0745 66.8358 14.8839L59.0871 12.4617L61.2575 11.7544C61.2575 11.7544 60.2216 2.07476 49.0109 3.76097L40.474 6.28441C40.474 6.28441 36.1157 -0.457746 25.431 3.20541C14.7463 6.86856 15.0139 17.0434 13.426 16.9291Z" fill="#68974C"/>
<path d="M36.8211 18.3804C40.8417 18.1992 44.8516 18.9228 48.5498 20.4968C49.435 20.8535 49.7894 21.3922 49.6962 22.2673C49.5152 23.968 49.1863 25.4431 47.1991 26.1719C40.2705 28.713 33.6466 28.6132 27.3588 24.4009C26.9262 24.1111 26.5046 23.861 26.6186 23.2479L26.6204 23.1964C27.0977 23.3132 27.1912 22.9153 27.3775 22.6419L27.394 22.6276C29.3008 21.3819 31.3138 20.3038 33.41 19.4055C34.5985 19.6784 33.5577 20.0967 33.4184 20.317C32.3874 21.9485 31.9193 23.6762 32.7885 25.4696C33.6097 27.1639 35.2684 27.3212 36.9385 27.2989C37.157 27.296 37.3755 27.3019 37.5939 27.2976C40.1754 27.2467 42.067 25.5324 42.0898 23.2246C42.0854 22.0256 41.6036 20.8769 40.7492 20.0282C39.8948 19.1794 38.737 18.6992 37.5274 18.692C37.0694 18.6824 36.6111 18.6906 36.1529 18.6906L36.1869 18.4699L36.8211 18.3804Z" fill="#F8F8F7"/>
<path d="M71.0679 21.5239C68.1853 19.9692 65.2086 18.6789 61.8377 18.6509C58.3407 18.3616 54.8527 19.3033 51.9867 21.3104C51.4118 21.6613 50.9142 22.1235 50.5237 22.6695C50.1333 23.2155 49.8579 23.8339 49.7142 24.4878C49.5183 25.3922 49.6882 25.6944 50.5461 26.0323C53.1652 27.064 55.9053 27.1068 58.6451 27.2332C59.8096 27.4497 60.9359 27.071 62.083 27.0148C64.765 26.6765 67.419 26.1473 70.0244 25.4313C70.5386 25.3085 71.007 25.0435 71.375 24.6671C71.7431 24.2907 71.9957 23.8183 72.1033 23.3051C72.2987 22.435 71.7317 21.8818 71.0679 21.5239ZM62.0815 26.5474C60.9638 26.8762 59.8058 26.7245 58.6695 26.8278C56.5776 26.5598 55.6152 25.5072 55.6433 23.5186C55.6795 20.9672 57.2247 19.1577 59.5043 18.9537C60.2849 18.958 61.063 19.0436 61.8256 19.2091C62.7938 19.8027 63.7211 20.4235 64.1852 21.5343C65.0497 23.6042 64.2807 25.4641 62.0815 26.5474Z" fill="#F8F8F7"/>
<path d="M36.8211 18.3804L36.1871 18.4697L36.1531 18.6905C36.6112 18.6905 37.0696 18.6822 37.5275 18.6919C38.7371 18.6991 39.895 19.1793 40.7494 20.028C41.6037 20.8768 42.0855 22.0255 42.09 23.2245C42.0672 25.5324 40.1756 27.2464 37.594 27.2975C37.3757 27.3018 37.1571 27.2958 36.9387 27.2987C35.2686 27.321 33.6098 27.1637 32.7886 25.4695C31.9193 23.6761 32.3873 21.9484 33.4186 20.3169C33.5578 20.0965 34.5986 19.6783 33.4101 19.4054L33.4127 18.9726C33.5172 18.8758 33.6404 18.801 33.7748 18.7529C33.9093 18.7047 34.0523 18.6841 34.195 18.6923C34.8623 19.1502 35.3965 19.2449 35.5181 18.2155L36.1813 18.095L36.8211 18.3804ZM39.625 21.7937C39.5795 21.5655 39.449 21.3626 39.2595 21.2254C39.07 21.0882 38.8354 21.0268 38.6022 21.0533C38.115 21.0745 37.6183 21.1623 37.6118 21.8025C37.6019 21.932 37.6203 22.062 37.6657 22.1838C37.7111 22.3056 37.7825 22.4163 37.8749 22.5083C37.9674 22.6003 38.0787 22.6714 38.2014 22.7169C38.3241 22.7624 38.4553 22.7811 38.5859 22.7718C38.7191 22.7757 38.8517 22.7534 38.9761 22.7062C39.1005 22.6591 39.2142 22.588 39.3108 22.4971C39.4074 22.4062 39.4849 22.2972 39.5388 22.1765C39.5927 22.0558 39.622 21.9257 39.625 21.7937ZM35.1669 20.4075C35.233 20.7972 35.4226 21.054 35.8532 21.0457C35.9414 21.0486 36.0293 21.034 36.1116 21.0026C36.194 20.9713 36.2692 20.9239 36.3328 20.8633C36.3963 20.8026 36.447 20.73 36.4817 20.6496C36.5164 20.5692 36.5346 20.4827 36.535 20.3953C36.5338 20.3076 36.5149 20.221 36.4792 20.1407C36.4435 20.0604 36.3918 19.988 36.3273 19.928C36.2627 19.868 36.1866 19.8214 36.1035 19.7912C36.0204 19.761 35.932 19.7476 35.8436 19.752C35.4476 19.7472 35.2382 20.0338 35.1669 20.4075Z" fill="#070707"/>
<path d="M39.6249 21.7937C39.622 21.9257 39.5927 22.0558 39.5388 22.1766C39.4849 22.2973 39.4074 22.4063 39.3108 22.4972C39.2143 22.5881 39.1005 22.6592 38.9761 22.7064C38.8516 22.7536 38.719 22.7759 38.5859 22.772C38.4552 22.7813 38.3241 22.7626 38.2014 22.7171C38.0787 22.6716 37.9673 22.6005 37.8749 22.5085C37.7825 22.4165 37.7111 22.3058 37.6657 22.184C37.6203 22.0622 37.6019 21.9322 37.6118 21.8027C37.6182 21.1623 38.115 21.0745 38.6022 21.0535C38.8353 21.027 39.0699 21.0884 39.2594 21.2256C39.4489 21.3627 39.5794 21.5655 39.6249 21.7937Z" fill="#E7E7E7"/>
<path d="M35.1669 20.4075C35.2382 20.0338 35.4476 19.7472 35.8435 19.7521C35.9319 19.7477 36.0203 19.761 36.1034 19.7912C36.1865 19.8215 36.2626 19.868 36.3271 19.9281C36.3917 19.9881 36.4433 20.0604 36.479 20.1407C36.5147 20.221 36.5337 20.3076 36.5348 20.3954C36.5344 20.4828 36.5163 20.5693 36.4815 20.6497C36.4468 20.73 36.3962 20.8027 36.3326 20.8633C36.269 20.924 36.1939 20.9714 36.1115 21.0027C36.0291 21.034 35.9413 21.0487 35.8531 21.0458C35.4226 21.054 35.233 20.7972 35.1669 20.4075Z" fill="#E7E7E7"/>
<path d="M44.2454 30.5521C44.1033 30.6189 43.9752 30.7117 43.8677 30.8256C42.8244 31.7666 41.36 32.046 40.0379 32.5334C38.8335 32.9774 37.6904 33.6218 36.4248 33.8422C36.2106 33.8645 36.0009 33.9189 35.8032 34.0037C35.6586 34.0783 35.3518 34.359 35.4844 34.5468C35.6364 34.7621 36.2087 34.517 36.3799 34.4501C37.9249 33.8466 39.5933 33.5932 41.1264 32.9608C42.3025 32.4314 43.4253 31.7925 44.4796 31.0526C44.5775 31.0045 44.6528 30.9206 44.6895 30.8186C44.7269 30.64 44.5042 30.4975 44.3233 30.5308C44.2968 30.5357 44.2707 30.5428 44.2454 30.5521Z" fill="#0F1B0D"/>
<path d="M47.3437 29.3497H47.3428C47.3387 29.3575 47.3304 29.3573 47.3264 29.3655L47.3437 29.3497Z" fill="#0F1B0D"/>
<path d="M47.8735 29.0979L47.8705 29.0984L47.8585 29.108L47.8735 29.0979Z" fill="#0F1B0D"/>
<path d="M42.5936 7.74866L42.5948 7.75801C42.5989 7.75726 42.5987 7.76109 42.6028 7.76025L42.5936 7.74866Z" fill="#0F1B0D"/>
<path d="M43.645 10.094L43.6456 10.1009L43.6488 10.1024L43.645 10.094Z" fill="#0F1B0D"/>
<path d="M55.2584 54.7043L55.2604 54.7036L55.2624 54.7002L55.2584 54.7043Z" fill="#0F1B0D"/>
<path d="M31.3248 27.2799C31.3227 27.2748 31.3193 27.2733 31.3172 27.2687L31.3062 27.2684L31.3248 27.2799Z" fill="#0F1B0D"/>
<path d="M2.33525 36.1427L2.33124 36.1455C2.33124 36.151 2.33161 36.1568 2.33124 36.1623L2.33525 36.1427Z" fill="#0F1B0D"/>
<path d="M72.1067 21.3333C72.7478 20.4028 72.0533 20.0373 71.393 19.637C71.2603 19.5661 71.1496 19.4607 71.0729 19.3322C70.9961 19.2036 70.9561 19.0567 70.9573 18.9074C70.8998 17.67 70.1485 16.9551 69.0043 16.5936C68.715 16.5023 68.3885 16.4779 68.4804 16.0215C68.6207 15.3227 68.0874 15.0235 67.6171 14.7152C66.1817 13.7351 64.6073 12.9721 62.9454 12.4511C62.5743 12.3798 62.2368 12.1904 61.9842 11.9116C61.7317 11.6329 61.5778 11.28 61.546 10.9066C60.4074 5.29835 56.6764 2.41037 51.0388 2.79827C48.1632 3.01903 45.3657 3.83232 42.8253 5.1861C41.572 5.83939 40.7847 5.86053 39.9052 4.74233C39.4526 4.2711 38.9241 3.87768 38.3414 3.5781C33.3781 0.461727 25.7224 1.19785 20.5348 5.22463C16.7067 8.1961 14.4601 12.1693 12.9702 16.6483C12.8286 17.0738 12.8519 17.5292 12.1802 17.6704C11.1278 17.8925 10.136 18.3363 9.27202 18.9718C8.40801 19.6073 7.69202 20.4195 7.17261 21.3534C2.70229 28.9558 0.268391 36.993 2.09852 45.8946C2.96584 50.112 5.14742 53.1772 9.45158 54.4954C10.696 54.8765 11.9032 55.3851 13.1589 55.721C20.2459 57.6164 27.4997 58.3334 34.8071 58.592C40.1028 58.7795 45.4054 58.8568 50.5487 57.2718C54.4404 56.0724 58.1361 54.4867 61.0961 51.578C62.6702 51.7165 64.2477 51.3501 65.5958 50.5327C66.6494 49.8512 67.4357 48.9429 66.9244 47.6189C66.5095 46.5444 66.9471 46.1084 67.8188 45.5906C69.578 44.546 70.0157 43.6054 69.6849 42.1606C69.617 41.9112 69.4811 41.6852 69.2921 41.5073C69.1032 41.3295 68.8684 41.2066 68.6136 41.1523C68.208 41.0513 68.1856 40.8748 68.1735 40.5389C68.0467 37.0186 66.0062 34.596 63.4353 32.4828C63.4198 32.4327 63.4149 32.38 63.4209 32.3279C63.4269 32.2759 63.4438 32.2256 63.4703 32.1803C63.4968 32.1349 63.5325 32.0955 63.5752 32.0645C63.6178 32.0335 63.6664 32.0115 63.718 32C65.5617 31.3933 67.119 30.1413 68.0985 28.4784C68.1451 28.3841 68.2109 28.3004 68.2917 28.2324C68.3725 28.1644 68.4666 28.1137 68.5681 28.0834C69.812 27.6873 71.4066 27.6228 71.0553 25.6325C72.5955 24.4852 73.2799 23.1324 72.1067 21.3333ZM69.0316 17.3365C69.1042 17.3773 69.2308 17.355 69.2756 17.4083C69.5587 17.7459 70.2868 17.9334 70.0435 18.4345C69.7799 18.9777 69.2557 18.4839 68.9079 18.3297C64.6992 16.4637 60.3096 16.4704 55.8605 17.0435C54.9568 17.1599 54.0537 17.2798 53.1502 17.3982C52.0489 17.7543 50.9379 18.085 49.8516 18.4819C49.4926 18.6131 48.9137 18.572 48.9311 19.2098C50.0331 19.5894 50.873 18.7415 51.8527 18.5408C52.8101 18.3446 53.7315 17.9558 54.7386 17.9621C55.8045 17.392 57.0315 17.7237 58.135 17.3655C60.5902 16.8477 62.9941 17.33 65.3989 17.7472C65.4711 17.7596 65.5094 17.9628 65.5632 18.0771C66.1145 18.0095 66.6739 18.053 67.2078 18.2049C67.7417 18.3568 68.2392 18.614 68.6704 18.9611C69.5822 18.8444 70.1301 19.585 70.866 19.8834C71.0582 19.9614 71.3042 20.1348 71.1538 20.3604C71.081 20.434 70.9906 20.4883 70.8911 20.5182C70.7915 20.5481 70.686 20.5527 70.5842 20.5315C69.8678 20.2497 69.0936 20.0652 68.523 19.4955C67.3885 19.2583 66.2812 18.9071 65.2185 18.4474C62.6007 17.9885 59.9813 17.7436 57.3544 18.3811C57.0885 18.457 56.8225 18.5329 56.5564 18.6087C55.855 18.8095 55.1535 19.0104 54.4519 19.2114C53.8064 19.6571 53.1051 20.0175 52.3656 20.2836L52.3752 20.2718C52.3277 20.3681 52.251 20.4474 52.1558 20.4985C52.0607 20.5496 51.9518 20.57 51.8444 20.5568L51.8455 20.5269C51.7534 20.6194 51.6612 20.7118 51.5689 20.8039L51.5885 20.7943C51.3085 21.0609 51.0379 21.3377 50.7455 21.5902C50.5935 21.7217 50.2959 21.9193 50.2327 21.6214C49.8529 19.834 48.0343 20.0341 46.9513 19.2293C44.4906 18.5663 42.052 17.7839 39.4543 17.8561C38.5978 17.8084 37.7298 18.0346 36.8832 17.6961C36.5448 17.5608 36.3083 17.7762 36.1811 18.0956L36.821 18.3808C40.8417 18.1996 44.8516 18.9232 48.5498 20.4973C49.435 20.8539 49.7894 21.3927 49.6963 22.2678C49.5152 23.9684 49.1864 25.4435 47.1991 26.1724C40.2705 28.7135 33.6466 28.6137 27.3588 24.4013C26.9262 24.1116 26.5049 23.8615 26.6186 23.2484C25.3109 23.225 24.0357 22.7446 22.6966 23.0226C22.5178 23.0292 22.3423 22.9734 22.2008 22.865C22.0592 22.7566 21.9605 22.6024 21.9219 22.4292C21.8305 22.0264 22.243 21.8938 22.4997 21.8839C24.6442 21.8017 26.5515 20.7533 28.6356 20.4403C29.2403 19.847 30.2821 20.0038 30.7758 19.2203C30.9359 19.1714 31.0962 19.1225 31.2564 19.0737C32.4277 18.2404 33.7541 17.6455 35.1588 17.3237C36.5636 17.0019 38.0188 16.9595 39.4402 17.1989C40.0608 17.1632 40.6755 16.9274 41.3043 17.141C42.3048 16.9997 43.3249 17.175 44.219 17.6419C44.3042 17.6433 44.3889 17.6554 44.471 17.678C45.9078 17.523 47.2941 18.9744 48.4202 18.442C49.5817 17.8121 50.8056 17.3023 52.0725 16.9208C53.3721 16.7173 54.6343 16.1829 55.9005 16.0769C57.0247 15.9828 58.0803 15.5123 59.2136 15.6066C60.2557 15.622 61.2977 15.6373 62.3395 15.6525C64.6296 15.9819 66.9552 16.1719 69.0316 17.3365ZM64.7012 13.7961C65.9512 14.2775 67.0929 14.9988 68.061 15.9186C67.3461 16.1291 66.5858 15.8923 65.8659 15.6995C60.817 14.3469 55.4116 15.165 50.4258 16.7308C49.8865 16.9002 49.2052 17.0435 48.831 16.623C48.7527 16.5098 48.6655 16.4029 48.5703 16.3032C48.5208 16.2552 48.4544 16.2281 48.3852 16.2276C48.316 16.2271 48.2492 16.2532 48.199 16.3005C47.9903 15.7449 47.3286 15.5363 46.7687 15.3276C45.844 14.9809 44.999 14.4536 44.284 13.7769C44.0628 13.5677 43.4078 13.0738 43.6016 12.7302C43.7576 12.4532 45.0037 12.4064 45.3141 12.3488L46.4867 12.1306C47.0373 12.0282 47.5879 11.9257 48.1411 11.8383C53.4842 11.0024 58.9553 11.5805 64.0006 13.5139C64.2348 13.6042 64.4684 13.6984 64.7012 13.7961ZM43.3976 5.48372C43.7317 5.38008 44.1247 5.42781 44.3754 5.10979C45.2187 4.63697 46.1352 4.30618 47.0878 4.13089C48.7671 3.64549 50.4956 3.65812 52.2233 3.55526C55.639 3.35176 57.9473 5.00577 59.7396 7.65446C59.9316 7.82575 60.0805 8.03919 60.1744 8.27771C60.2683 8.51623 60.3046 8.77321 60.2803 9.02811H60.2666C61.0442 9.77658 60.8946 10.8392 61.2576 11.7546C60.7639 12 60.3968 11.6123 59.9857 11.6097C56.9313 11.0259 53.8426 11.0261 50.751 11.0737C49.5252 11.0476 48.3352 11.4967 47.0998 11.3443C46.2365 11.5423 45.354 11.6466 44.468 11.6553C43.4264 11.5349 43.7447 10.7104 43.6458 10.1016C43.3411 10.0332 43.3801 9.79291 43.379 9.57253L43.3884 9.58177C42.9376 9.07139 42.6601 8.43349 42.5951 7.75825C42.3818 7.79469 42.3485 7.64632 42.3222 7.4912L42.3326 7.5023C41.4331 6.31222 41.4331 6.31221 43.3976 5.48372ZM68.6944 41.843L68.7158 41.8487C68.8813 41.952 69.0468 42.0554 69.2121 42.1588C69.6373 43.161 69.2015 43.8584 68.395 44.4246C67.861 45.0079 67.2133 45.4779 66.491 45.8063C65.7687 46.1346 64.9867 46.3145 64.1923 46.335C63.2697 46.67 62.2913 46.828 61.3092 46.8008L59.2516 46.8686C59.0551 46.9535 58.8484 47.013 58.6366 47.0457C53.9076 47.166 49.1811 47.2062 44.4785 46.5626C41.1082 46.1986 37.7774 45.5858 34.4449 44.9846C33.5501 44.9468 32.7352 44.4489 31.8185 44.5373C31.6397 44.6183 31.461 44.6993 31.2823 44.7803C31.8754 45.7978 33.0248 44.893 33.8032 45.5149C34.3104 45.9202 35.0939 45.8311 35.7743 45.808C36.0641 45.8151 36.3788 45.7439 36.5723 46.0509C37.8579 46.1196 39.1812 46.0125 40.3053 46.8364C43.1275 46.7085 45.852 47.7724 48.685 47.5136L59.4386 47.6813C61.4548 47.6482 63.457 47.3429 65.3899 46.7738C65.9993 46.5827 66.1987 47.0051 66.2589 47.4139C66.2955 47.9269 66.2881 48.442 66.2367 48.9537C66.2647 49.1425 66.2171 49.3346 66.1041 49.489C65.9911 49.6434 65.8217 49.7479 65.632 49.7802L65.5622 49.7996L65.5287 49.7358C65.5776 49.9604 65.4024 50.0308 65.2578 50.1222C63.7104 51.0515 62.0007 51.122 60.2636 51.0496L50.7841 50.9822C48.6022 50.8459 46.408 50.892 44.2636 50.3055C43.5397 50.1894 42.8048 50.155 42.073 50.2029C40.6741 49.8626 39.2121 49.7845 37.8687 49.2135C35.8357 48.9184 33.8043 48.6137 31.7694 48.3328C30.9968 48.2265 30.2166 48.1746 29.4396 48.098C27.5276 47.6424 25.5754 48.4326 23.6636 47.9162C23.4601 47.8611 23.2308 47.8828 23.127 47.6449C21.7184 46.4819 21.9574 43.7315 23.5516 42.6628C24.295 42.136 25.1531 41.7898 26.0564 41.6524C27.6638 41.0219 29.3083 41.3837 30.934 41.5128C31.9308 41.5919 32.9152 41.8238 33.9052 41.9871C34.7304 42.4233 35.7696 42.1412 36.5406 42.7592C38.1537 42.9579 39.7485 43.2818 41.3103 43.728C42.6849 43.7036 44.0624 43.6659 45.2631 44.5074L49.2122 44.8132C52.0099 44.7619 54.8075 44.7104 57.6051 44.6589C58.2552 44.9503 58.8127 44.4801 59.4226 44.4418C60.9167 44.1018 62.4108 43.7617 63.905 43.4216C63.99 43.1409 64.2344 43.1866 64.4474 43.1675L64.4343 43.1866C65.5189 42.6822 66.6036 42.1778 67.6882 41.6735C68.0257 41.7165 68.4164 41.4528 68.6944 41.843ZM70.0069 26.8069C69.618 27.0626 69.1969 27.2667 68.7545 27.414C67.8308 27.8048 67.2485 28.6964 66.569 29.4295C64.6948 31.4514 61.8592 32.384 59.0925 32.5219C56.3258 32.6597 53.5788 32.0871 50.8688 31.5178C52.7953 32.372 54.6632 33.3506 56.4604 34.4473L56.0242 33.1487L63.2302 32.5944C64.9023 34.3979 66.2913 36.4403 67.3505 38.6532C67.6337 39.1349 67.7672 39.6887 67.7343 40.2452C67.5884 41.2059 66.5851 41.7688 65.6767 42.1339C60.3227 44.2856 54.3703 44.5689 48.6188 44.0274C42.8674 43.4858 37.2256 42.1552 31.5328 41.1783C29.7613 40.8743 27.9453 40.6043 26.1737 40.9085C24.4022 41.2126 22.6554 42.1893 21.8764 43.7954C21.0974 45.4015 21.6029 47.6385 23.2144 48.4288C24.238 48.9308 25.4449 48.7931 26.5848 48.7236C33.748 48.2869 40.7225 51.0107 47.8827 51.493C51.8893 51.7629 55.9331 51.3284 59.9188 51.8151C56.3389 54.8739 51.7748 56.642 47.1238 57.4749C42.4727 58.3077 37.7072 58.2545 32.9869 58.0142C25.6216 57.6394 18.2213 56.8035 11.2039 54.5552C8.93764 53.8291 6.40174 52.8573 4.84417 50.9754C3.25086 49.0502 2.55927 45.9854 2.23692 43.5583C1.46973 37.7827 2.95087 31.8776 5.06582 26.5264C6.40435 23.1396 8.38309 19.5034 11.9047 18.4801L11.9613 23.7735C12.6595 18.438 14.3621 13.1015 17.7689 8.91285C21.1758 4.72424 26.4736 1.83445 31.8902 2.18549C37.3068 2.53654 42.5148 6.61299 43.2713 11.9407C42.1053 11.9293 41.068 11.2604 40.0368 10.7209C37.6586 9.50553 35.0175 8.88231 32.3419 8.90505C29.6662 8.92779 27.0363 9.59581 24.6795 10.8514C23.8423 11.3078 22.966 11.9606 22.8636 12.9022C27.9247 8.72156 35.846 8.40109 41.2341 12.159C41.6956 12.4809 42.3276 12.8324 42.7704 12.4857C42.5061 12.3756 42.4111 12.88 42.6358 13.0567C42.8604 13.2334 43.195 13.2616 43.3684 13.488C43.7993 14.0512 42.7634 14.5698 42.0507 14.5421C38.9283 14.4207 35.6919 14.2297 32.7881 15.3736C31.2959 15.9615 29.9632 16.8774 28.5659 17.6617C26.8697 18.6135 25.0716 19.3747 23.205 19.931C26.7195 20.2007 29.6569 17.5037 32.8854 16.1011C37.4637 14.1124 42.778 14.7581 47.5677 16.1762C47.742 16.2034 47.9084 16.2673 48.0557 16.3635C48.2031 16.4597 48.3279 16.5861 48.4219 16.734C48.613 17.1712 48.2068 17.6794 47.7388 17.7883C47.2596 17.8493 46.7727 17.7782 46.3315 17.583C42.4189 16.2869 38.0841 15.7617 34.19 17.1114C30.8549 18.2674 27.9119 20.7556 24.3815 20.8964C23.5767 20.9285 22.728 20.8423 22.0052 21.1945C21.2823 21.5467 20.8283 22.5823 21.3896 23.1549C21.8241 23.5983 22.5463 23.4996 23.1699 23.5023C25.0449 23.5101 26.6673 24.6998 28.2888 25.6326C31.2543 27.3017 34.5815 28.239 37.9894 28.3652C41.3972 28.4914 44.7857 27.8029 47.8686 26.3578C48.0257 26.2483 48.2071 26.1778 48.3974 26.1523C48.5878 26.1268 48.7815 26.1471 48.9623 26.2114C49.5862 26.5786 49.0302 27.5307 48.4184 27.9174C46.4553 29.1583 44.0788 29.5845 41.755 29.7308C36.4366 30.0587 31.1201 29.0618 26.2902 26.8309C30.8454 30.6466 37.4643 30.4341 43.4137 30.0182C44.7516 29.996 46.077 29.7595 47.3387 29.3179C48.5718 28.8095 49.6788 27.8108 49.9509 26.5151C54.9699 28.6611 60.7167 27.7765 66.103 26.8548L70.2779 26.1403C70.3035 26.2655 70.2914 26.3953 70.2432 26.5138C70.1951 26.6322 70.1129 26.7343 70.0069 26.8069ZM70.0213 25.4229C69.6367 25.5509 69.2459 25.6595 68.8503 25.7483C65.5519 26.5359 62.1978 27.1946 58.8053 27.2372C56.1418 27.2701 53.4873 26.923 50.9235 26.2068C50.0947 25.975 49.5391 25.6028 49.6779 24.7083C49.8261 23.8584 50.2011 23.0634 50.764 22.4058C51.4988 21.5723 52.3915 20.89 53.3915 20.3975C56.1321 18.9906 59.2192 18.3833 62.2941 18.6462C65.3618 18.9173 68.3244 19.8889 70.9498 21.4848C71.3146 21.6719 71.6321 21.9379 71.879 22.2631C72.3773 23.0213 72.0269 24.0957 71.3437 24.6959C70.9548 25.0211 70.5056 25.2682 70.0213 25.4229Z" fill="#0F1B0D"/>
<path d="M7.32959 52.8737C7.33342 52.877 7.33776 52.8789 7.34135 52.8822L7.34965 52.8839L7.32959 52.8737Z" fill="#0F1B0D"/>
<path d="M29.47 19.2353L29.4726 19.2363L29.4742 19.2342L29.47 19.2353Z" fill="#0F1B0D"/>
<path d="M30.7984 27.022C30.7963 27.017 30.7927 27.0152 30.7903 27.0103L30.7795 27.0092L30.7984 27.022Z" fill="#0F1B0D"/>
<path d="M36.584 46.0633C36.5806 46.0576 36.5757 46.0565 36.5722 46.0509L36.5641 46.0505L36.584 46.0633Z" fill="#0F1B0D"/>
<path d="M24.9867 41.145L24.997 41.1432C24.9999 41.1376 25.0044 41.1354 25.0071 41.1293L24.9867 41.145Z" fill="#0F1B0D"/>
<path d="M24.9762 11.6309C24.9725 11.6299 24.9702 11.6324 24.9666 11.6316C24.9673 11.6349 24.9643 11.6346 24.9649 11.6381L24.9762 11.6309Z" fill="#0F1B0D"/>
<path d="M63.9102 43.4203L63.9045 43.4217C63.9035 43.4252 63.9012 43.4261 63.9003 43.4298L63.9102 43.4203Z" fill="#0F1B0D"/>
<path d="M26.3091 44.4692L25.9257 44.6774C26.1434 44.7239 26.3611 44.7704 26.5786 44.8168C26.6155 44.7963 26.6565 44.7843 26.6987 44.7814C26.7408 44.7785 26.7831 44.785 26.8225 44.8002L27.3556 44.7896L30.4986 44.8039C30.7597 44.7961 31.0209 44.7882 31.2823 44.7803L31.8184 44.5372C30.0051 44.1495 28.1316 44.1264 26.3091 44.4692Z" fill="#0F1B0D"/>
<path d="M18.7828 47.3767C18.3423 49.9865 21.141 52.2433 23.8891 51.4899C21.3252 51.2135 19.8352 49.6312 18.7828 47.3767Z" fill="#0F1B0D"/>
<path d="M28.692 21.1709C28.3231 21.7123 27.2712 21.6557 27.3941 22.6278C29.3008 21.3822 31.3137 20.304 33.4098 19.4057C33.4109 19.2614 33.4119 19.1172 33.4127 18.973C32.7945 19.2055 32.1763 19.4381 31.5583 19.6707C30.6028 20.1708 29.6474 20.6708 28.692 21.1709Z" fill="#0F1B0D"/>
<path d="M26.6204 23.1964C27.0976 23.3131 27.1913 22.9153 27.3776 22.6418C26.8651 22.4778 26.4891 22.4971 26.6204 23.1964Z" fill="#0F1B0D"/>
<path d="M35.5179 18.2156C35.0433 18.2613 34.5881 18.4254 34.1947 18.6924C34.8621 19.1504 35.3963 19.245 35.5179 18.2156Z" fill="#0F1B0D"/>
<path d="M69.2121 42.1588C69.0467 42.0554 68.8811 41.9522 68.7154 41.8489L68.6945 41.8423L68.694 41.8426C68.4158 41.4531 68.0255 41.7163 67.6878 41.6733C66.6039 42.1773 65.5201 42.6813 64.4365 43.1853C64.4394 43.1781 64.444 43.1749 64.4469 43.1674C64.234 43.1865 63.9896 43.1407 63.9046 43.4215C62.4104 43.7617 60.9162 44.1018 59.4222 44.4418C58.8123 44.4801 58.2548 44.9506 57.6049 44.6586C54.8071 44.7102 52.0095 44.762 49.212 44.8132L45.2632 44.5075C44.0624 43.6657 42.6847 43.7038 41.3101 43.7282C39.7482 43.2819 38.1533 42.9581 36.5402 42.7597C35.7184 42.8335 34.8898 42.7645 34.0919 42.5556C34.8899 42.7645 35.7185 42.8333 36.5404 42.7592C35.7694 42.1412 34.7302 42.4232 33.9049 41.9871C32.915 41.8238 31.9305 41.5918 30.9338 41.5127C29.3081 41.3837 27.6636 41.0219 26.056 41.6521C25.1527 41.7898 24.2948 42.136 23.5514 42.6628C21.9573 43.7315 21.7184 46.4819 23.1268 47.6448C23.2305 47.8828 23.4597 47.8611 23.6634 47.9161C25.5752 48.4325 27.5274 47.6423 29.4394 48.098C30.2164 48.1746 30.9966 48.2262 31.7692 48.3328C33.8037 48.6136 35.8355 48.9183 37.8685 49.2135C39.212 49.7845 40.6739 49.8626 42.0728 50.2029C42.8046 50.1549 43.5394 50.1894 44.2634 50.3055C46.4077 50.8919 48.6019 50.8459 50.7839 50.9821L60.2632 51.0496C62.0004 51.122 63.7102 51.0514 65.2576 50.1222C65.348 49.9934 65.4383 49.8647 65.5287 49.7359L65.562 49.7996L65.6318 49.7802C65.8215 49.7479 65.991 49.6434 66.104 49.489C66.2171 49.3345 66.2647 49.1424 66.2367 48.9536C66.2879 48.4419 66.2953 47.9268 66.2587 47.4139C66.1985 47.0049 65.9991 46.5827 65.3897 46.7738C63.4568 47.3428 61.4546 47.6481 59.4385 47.6813C55.8541 47.6254 52.2697 47.5696 48.6851 47.514C45.8519 47.7723 43.1275 46.7085 40.3052 46.8364C39.181 46.0124 37.8576 46.1195 36.5722 46.051C36.3787 45.7439 36.0642 45.8151 35.7742 45.808C35.0938 45.8311 34.3103 45.9202 33.8031 45.5149C33.0247 44.893 31.8753 45.7976 31.282 44.7803C31.021 44.7881 30.7598 44.796 30.4985 44.8038L27.3555 44.7896L26.8224 44.8002C26.7501 44.9335 26.6694 44.95 26.5785 44.8167C26.3608 44.7702 26.1431 44.7237 25.9256 44.6773L26.309 44.4692C28.1316 44.1263 30.005 44.1494 31.8184 44.5371C32.7351 44.4488 33.55 44.9467 34.445 44.9846C37.7773 45.5858 41.1081 46.1985 44.4784 46.5625C49.181 47.2061 53.9075 47.1658 58.6365 47.0456C58.8482 47.013 59.0548 46.9534 59.2511 46.8684C59.9373 46.8459 60.6233 46.8233 61.3089 46.8007C62.2911 46.8279 63.2695 46.6699 64.1921 46.3349C64.9865 46.3144 65.7685 46.1345 66.4908 45.8062C67.2131 45.4778 67.8608 45.0078 68.3948 44.4245C69.2014 43.8584 69.6373 43.161 69.2121 42.1588Z" fill="#AD6547"/>
<path d="M62.0815 26.5474C60.9636 26.8762 59.8057 26.7245 58.6693 26.8278C56.5778 26.5601 55.615 25.5072 55.6432 23.5186C55.6793 20.9671 57.2247 19.1576 59.5043 18.9536C60.2849 18.958 61.0629 19.0436 61.8255 19.2091C62.7937 19.8026 63.7211 20.4236 64.185 21.5343C65.0497 23.6041 64.2807 25.4641 62.0815 26.5474ZM61.3147 22.7508C61.838 22.6657 62.2782 22.4363 62.2536 21.8835C62.2314 21.3863 61.8122 21.1792 61.3322 21.2096C60.9122 21.2363 60.4236 21.2273 60.4292 21.8538C60.4345 22.4379 60.8262 22.6507 61.3147 22.7508ZM58.7528 21.2037C59.0859 21.1052 59.4116 20.9436 59.4083 20.5571C59.4072 20.4822 59.3912 20.4082 59.361 20.3395C59.3309 20.2707 59.2874 20.2086 59.2328 20.1566C59.1783 20.1047 59.114 20.064 59.0435 20.0369C58.973 20.0097 58.8978 19.9968 58.8222 19.9987C58.7367 19.9864 58.6495 19.9931 58.5669 20.0185C58.4844 20.0438 58.4086 20.0871 58.345 20.1451C58.2815 20.2032 58.2318 20.2745 58.1996 20.354C58.1674 20.4335 58.1535 20.5191 58.1588 20.6045C58.148 20.966 58.4791 21.0652 58.7528 21.2037Z" fill="#070707"/>
<path d="M61.3147 22.7508C60.8263 22.6506 60.4346 22.4379 60.4293 21.8535C60.4237 21.227 60.9125 21.236 61.3322 21.2094C61.8123 21.179 62.2315 21.3861 62.2536 21.8833C62.2782 22.4363 61.8381 22.6656 61.3147 22.7508Z" fill="#E7E7E7"/>
<path d="M58.7529 21.2037C58.4793 21.0652 58.148 20.9661 58.1588 20.6043C58.1535 20.5188 58.1674 20.4333 58.1996 20.3538C58.2318 20.2743 58.2815 20.203 58.345 20.1449C58.4086 20.0869 58.4844 20.0436 58.5669 20.0183C58.6495 19.9929 58.7367 19.9862 58.8222 19.9984C58.8978 19.9966 58.973 20.0095 59.0435 20.0367C59.114 20.0638 59.1783 20.1045 59.2329 20.1564C59.2874 20.2084 59.3309 20.2705 59.361 20.3393C59.3912 20.408 59.4072 20.482 59.4083 20.5569C59.4116 20.9435 59.0859 21.1051 58.7529 21.2037Z" fill="#E7E7E7"/>
<path d="M75.1453 24.6761L75.1658 24.6756L75.1448 22.2442L7.88794 22.8214L7.90567 24.9032L3.34436 24.9425L3.36349 27.1565L8.11566 27.1158L8.09933 25.2514L21.3404 25.1376L21.3577 27.1061L23.8126 27.0848L23.8304 29.1457L25.5723 29.1309L25.5942 31.6558L27.9423 31.6359L27.9587 33.4919L43.9645 33.3546L43.9482 31.4985L46.0448 31.4805L46.0229 28.9552L47.5343 28.9422L47.5161 26.8813L48.0574 26.8767L48.0401 24.9087L50.1903 24.8902L50.2081 26.9243L52.7171 26.903L52.7335 28.7619L54.9714 28.7424L54.9915 31.017L57.7992 30.993L57.8123 32.4504L68.3712 32.3597L68.3586 30.9023L70.6978 30.882L70.6777 28.6078L72.94 28.5884L72.9236 26.7296L75.163 26.7102L75.1453 24.6761Z" fill="#0F1B0D"/>
<path d="M28.5162 25.0159H26.2849V27.2276H28.5162V25.0159Z" fill="#E9FFFF"/>
<path d="M30.6667 27.1061H28.4354V29.3177H30.6667V27.1061Z" fill="#E9FFFF"/>
<path d="M57.6199 24.7654H55.3885V26.977H57.6199V24.7654Z" fill="#E9FFFF"/>
<path d="M59.7704 26.8556H57.5391V29.0673H59.7704V26.8556Z" fill="#E9FFFF"/>
</g>
<defs>
<clipPath id="clip0_136_2843">
<rect width="77" height="60" fill="white" transform="translate(0 0.168701)"/>
</clipPath>
</defs>
</svg>
