<svg width="141" height="74" viewBox="0 0 141 74" fill="none" xmlns="http://www.w3.org/2000/svg">
<path d="M138.297 5.56533L138.337 5.54684L136.135 0.84952L7.2543 61.2826L9.14043 65.306L0.399232 69.4035L2.40569 73.6818L11.5101 69.4108L9.82089 65.8093L35.1943 53.9136L36.9789 57.7153L41.681 55.5076L43.5487 59.4907L46.8861 57.926L49.1741 62.8034L53.673 60.6923L55.3557 64.2794L86.025 49.8969L84.3437 46.3126L88.3612 44.4292L86.0748 39.5476L88.9711 38.1921L87.1035 34.209L88.1396 33.7236L86.3579 29.9206L90.4792 27.9896L92.3218 31.918L97.129 29.6657L98.8129 33.2557L103.1 31.2452L105.162 35.6374L110.543 33.1151L111.862 35.9317L132.095 26.4444L130.776 23.6278L135.259 21.5276L133.199 17.1312L137.532 15.0996L135.851 11.5083L140.141 9.49659L138.297 5.56533Z" fill="#0F1B0D"/>
</svg>
