<svg width="1440" height="707" viewBox="0 0 1440 707" fill="none" xmlns="http://www.w3.org/2000/svg">
<path opacity="0.7" d="M1455.29 5.67905C1397.67 22.3102 1350.17 77.001 1331.54 148.359C1318.78 136.843 1303.28 129.249 1286.74 126.401C1270.19 123.552 1253.23 125.557 1237.68 132.199C1202.3 147.394 1176.91 183.966 1167.12 227.309C1143.57 212.113 1116.55 204.027 1088.97 203.926C1018.7 203.926 957.886 256.768 928.594 333.649C918.662 320.652 906.175 310.109 892.003 302.756C877.831 295.402 862.316 291.416 846.541 291.074C803.559 291.074 765.873 320.681 744.816 365.104C728.666 268.05 662.456 195.346 583.205 195.346C519.426 195.346 464.082 242.444 436.497 311.452C423.045 296.666 406.964 284.848 389.184 276.68C371.403 268.512 352.273 264.156 332.896 263.862C271.208 263.862 217.416 307.931 188.987 373.243H186.499C180.706 340.55 164.284 311.044 140.091 289.86C146.149 266.727 149.201 242.826 149.162 218.818C149.162 102.672 79.6729 7.72571 -8.02423 0.812866V706.533H1455.29V5.67905Z" fill="white"/>
</svg>
